<?xml version="1.0" encoding="UTF-8" standalone="no"?>
<!-- Created with Inkscape (http://www.inkscape.org/) -->

<svg
   width="210mm"
   height="297mm"
   viewBox="0 0 210 297"
   version="1.1"
   id="svg1926"
   inkscape:version="1.1.2 (0a00cf5339, 2022-02-04)"
   sodipodi:docname="patriot-real-estate-logo.svg"
   xmlns:inkscape="http://www.inkscape.org/namespaces/inkscape"
   xmlns:sodipodi="http://sodipodi.sourceforge.net/DTD/sodipodi-0.dtd"
   xmlns="http://www.w3.org/2000/svg"
   xmlns:svg="http://www.w3.org/2000/svg">
  <sodipodi:namedview
     id="namedview1928"
     pagecolor="#ffffff"
     bordercolor="#666666"
     borderopacity="1.0"
     inkscape:pageshadow="2"
     inkscape:pageopacity="0.0"
     inkscape:pagecheckerboard="0"
     inkscape:document-units="mm"
     showgrid="false"
     showborder="false"
     inkscape:zoom="0.097323904"
     inkscape:cx="-5358.3958"
     inkscape:cy="-215.77433"
     inkscape:window-width="1600"
     inkscape:window-height="828"
     inkscape:window-x="0"
     inkscape:window-y="0"
     inkscape:window-maximized="1"
     inkscape:current-layer="layer1" />
  <defs
     id="defs1923" />
  <g
     inkscape:label="Layer 1"
     inkscape:groupmode="layer"
     id="layer1">
    <path
       style="display:inline;fill:#000000;stroke-width:0.264583"
       d="m -934.22678,100.33661 c -2.1629,-0.347739 -5.3952,-1.432739 -6.1497,-2.064299 -0.035,-0.0296 0.2166,-0.87816 0.56,-1.88569 0.3955,-1.16044 0.7585,-1.81486 0.9903,-1.78533 0.2013,0.0257 1.107,0.3565 2.0127,0.73528 3.3488,1.40068 7.3893,1.56138 10.0862,0.40119 3.1868,-1.37092 4.8036,-4.49083 4.8036,-9.26939 v -2.60662 l -1.1833,1.26508 c -1.4899,1.59276 -3.5295,2.6008 -5.9598,2.94547 -6.0208,0.85392 -11.1502,-2.526 -13.033,-8.58787 -0.6975,-2.24544 -0.8125,-7.07207 -0.2241,-9.40369 1.6282,-6.451437 6.1922,-10.318747 12.1779,-10.318747 3.4484,0 6.3427,1.25209 7.9165,3.42472 0.7266,1.00303 0.7841,1.03237 0.9333,0.47574 0.087,-0.32623 0.1606,-1.21824 0.1626,-1.98223 v -1.38906 l 2.1828,-1.1e-4 2.1828,-1e-4 -0.067,13.295407 c -0.069,13.64372 -0.2289,16.28389 -1.1606,19.11626 -1.1335,3.44566 -3.6717,5.87962 -7.3318,7.03074 -1.7508,0.550629 -7.0129,0.907179 -8.9032,0.603249 z m 7.9672,-16.709309 c 1.5827,-0.80814 3.457,-3.01014 3.9364,-4.62446 0.2791,-0.93991 0.3994,-2.54643 0.3993,-5.3321 -2e-4,-3.84781 -0.027,-4.04225 -0.7616,-5.57437 -1.3916,-2.901477 -3.6035,-4.351527 -6.6466,-4.357237 -2.2687,-0.004 -3.9774,0.79015 -5.6135,2.6099 -1.9691,2.190197 -2.447,3.719667 -2.447,7.832747 0,2.94701 0.085,3.65099 0.5928,4.91578 0.9999,2.48994 2.823,4.20677 5.3511,5.03909 1.1382,0.37478 4.0097,0.0929 5.1891,-0.50935 z m -837.96522,5.33792 c -4.5879,-0.59108 -7.6203,-1.97041 -10.336,-4.70144 -1.0281,-1.03396 -2.2416,-2.53724 -2.6967,-3.34065 -2.1488,-3.79378 -3.188,-9.26439 -2.711,-14.271067 0.3442,-3.61273 0.8619,-5.50556 2.3185,-8.47757 2.7691,-5.6502 7.9742,-9.03769 14.482,-9.42483 8.8009,-0.52355 15.6282,4.54483 17.8635,13.26129 1.3987,5.45439 0.8139,12.485497 -1.4305,17.197917 -2.2597,4.74437 -5.8875,7.80454 -10.7933,9.10436 -1.9589,0.51903 -5.2451,0.83897 -6.6965,0.65199 z m 6.0445,-4.85307 c 3.3324,-1.28106 6.3176,-5.07275 7.6192,-9.67772 0.7854,-2.77873 0.8465,-8.045577 0.1256,-10.835977 -1.1846,-4.58515 -3.797,-8.10641 -7.2151,-9.72532 -1.7021,-0.80615 -1.988,-0.85801 -4.7276,-0.85801 -2.7733,0 -3.0042,0.0434 -4.7172,0.88672 -4.831,2.37832 -7.6198,7.85646 -7.6302,14.988277 -0.01,5.19461 1.3682,9.25163 4.1593,12.26637 1.4673,1.58491 3.7612,3.00826 5.5789,3.46173 1.6702,0.41667 5.0629,0.16441 6.8071,-0.50607 z m -300.9537,4.40296 c -3.5959,-1.33848 -5.4612,-4.28496 -5.2011,-8.2159 0.3859,-5.83218 5.0401,-9.09007 13.7651,-9.63551 l 2.9765,-0.18608 0.084,-0.7307 c 0.2652,-2.306607 -1.6626,-5.308437 -3.8252,-5.956377 -2.6554,-0.79558 -5.7307,-0.29938 -9.8014,1.58141 -0.1881,0.0869 -1.0888,-2.31817 -1.1213,-2.99413 -0.027,-0.55568 2.5638,-1.72458 4.9362,-2.22729 2.3005,-0.48749 6.1537,-0.48844 7.9816,-0.003 3.0946,0.82362 5.1221,2.77164 6.1494,5.90841 0.5428,1.65737 0.5916,2.431277 0.7376,11.696667 0.086,5.45703 0.2513,10.0707 0.3676,10.2526 0.1633,0.2557 -0.3266,0.33073 -2.1597,0.33073 h -2.3708 l -0.1843,-1.5875 c -0.1013,-0.87312 -0.2361,-1.5875 -0.2994,-1.5875 -0.063,0 -0.5471,0.43196 -1.075,0.95994 -0.528,0.52795 -1.7444,1.32905 -2.7032,1.78025 -1.5494,0.72911 -2.0521,0.82859 -4.5213,0.89476 -1.849,0.0496 -3.0983,-0.0447 -3.7354,-0.28183 z m 8.378,-4.27252 c 0.6381,-0.37394 1.4478,-1.06421 1.7994,-1.53389 1.3377,-1.78724 1.4954,-2.37824 1.4954,-5.60335 v -3.05586 l -1.5214,0.009 c -2.1528,0.013 -5.427,0.64275 -6.8012,1.30794 -3.9438,1.90918 -4.6858,6.66189 -1.418,9.08225 1.4771,1.09408 4.3857,1.00097 6.4458,-0.20632 z m 123.2833,4.34864 c -5.0423,-1.03365 -8.2787,-4.04074 -9.825,-9.12908 -0.6477,-2.13119 -0.6407,-7.22278 0.013,-9.64599 1.1321,-4.194937 3.5822,-7.325857 7.0163,-8.965907 1.9825,-0.94681 2.0347,-0.95597 5.4468,-0.95597 3.3588,0 3.4894,0.0217 5.2083,0.868 4.0485,1.99305 6.2792,6.35264 6.2909,12.295017 l 0.01,2.31511 h -9.7895 -9.7896 v 0.89818 c 0,0.49398 0.2409,1.67801 0.5353,2.63117 1.0118,3.276 3.7564,5.48032 7.4785,6.00644 1.9302,0.27284 5.5159,-0.10252 7.5548,-0.79086 0.8206,-0.27705 1.5307,-0.46509 1.5779,-0.41789 0.047,0.0472 0.26,0.83291 0.4731,1.74604 0.444,1.90339 0.4577,1.8823 -1.6123,2.49251 -2.8925,0.8527 -8.0557,1.17139 -10.5834,0.65323 z m 9.1765,-18.3782 c -0.1736,-2.738247 -1.9814,-5.459197 -4.2624,-6.415687 -1.3938,-0.58441 -3.8826,-0.52978 -5.311,0.1166 -2.268,1.02634 -4.4096,3.97825 -4.909,6.766347 l -0.1785,0.99642 7.3724,-0.0704 7.3724,-0.0704 z m 98.1121,18.25654 c -1.8855,-0.38026 -4.3942,-1.2601 -5.1326,-1.80009 -0.449,-0.32824 -0.4434,-0.43561 0.1194,-2.31492 0.3246,-1.08389 0.6252,-2.01271 0.6681,-2.06404 0.043,-0.0514 0.7468,0.22304 1.5642,0.60976 3.4982,1.65492 8.1643,2.1949 11.0187,1.27519 1.8303,-0.58976 4.0199,-2.64986 4.4352,-4.17285 1.1812,-4.3316 -1.2013,-7.42593 -7.5564,-9.81419 -4.7667,-1.79131 -7.4827,-3.831247 -8.8789,-6.668717 -0.7991,-1.62412 -0.8674,-1.96382 -0.8608,-4.28223 0.01,-2.19718 0.1032,-2.72809 0.7605,-4.16454 2.2647,-4.94959 8.5135,-7.34544 15.7777,-6.04935 1.0962,0.1956 2.6007,0.61701 3.3433,0.93644 l 1.3501,0.58078 -0.6895,2.10307 c -0.5413,1.65127 -0.7764,2.06536 -1.0944,1.92765 -3.7546,-1.62645 -7.2328,-2.08727 -9.9007,-1.3117 -2.8855,0.83886 -4.9688,3.75499 -4.4869,6.28065 0.5563,2.91502 2.3984,4.49501 7.6832,6.58974 4.7632,1.887987 7.6589,4.079977 9.0015,6.813947 0.6829,1.39078 0.7376,1.7381 0.7376,4.68275 0,3.05364 -0.034,3.25028 -0.8598,4.92723 -1.459,2.96349 -4.4723,5.13369 -8.236,5.93143 -2.1556,0.45691 -6.4577,0.44905 -8.7635,-0.0161 z m 149.0927,0.23591 c -0.8732,-0.0525 -2.3324,-0.16653 -3.2429,-0.25326 l -1.6554,-0.15772 0.068,-19.22719 0.068,-19.227187 2.6459,-0.30798 c 3.8977,-0.4537 11.1694,-0.42796 14.1164,0.05 2.7956,0.45339 5.7533,1.51482 7.6975,2.76241 1.9828,1.27233 4.339,3.94769 5.415,6.14844 1.5664,3.20392 1.8764,4.79832 1.8668,9.603367 -0.01,4.97512 -0.3584,6.67234 -2.1287,10.36653 -2.4982,5.21298 -6.7374,8.25029 -13.4374,9.62763 -2.3301,0.479 -8.3145,0.80145 -11.413,0.61495 z m 9.8669,-4.48885 c 7.6322,-1.55757 11.9728,-7.38163 11.9566,-16.04295 -0.015,-7.944777 -3.9596,-13.138917 -11.1328,-14.659027 -2.0413,-0.43257 -9.5332,-0.44048 -10.2284,-0.0109 -0.2575,0.15912 -0.33,3.57 -0.33,15.514767 0,14.35926 0.029,15.31834 0.463,15.43182 1.1897,0.31092 7.3655,0.15518 9.2716,-0.23381 z m 172.0845,4.11375 c -2.5786,-0.67554 -4.2769,-1.63965 -5.8869,-3.34204 -4.0623,-4.29524 -4.7901,-12.1857 -1.7068,-18.502967 1.2183,-2.49597 3.0496,-4.31834 5.6122,-5.58485 l 2.036,-1.00624 h 3.4533 c 3.2451,0 3.5525,0.0458 5.0996,0.76047 4.0495,1.87047 6.4102,6.38265 6.4195,12.270257 v 2.4474 h -9.8265 -9.8266 l 0.1489,1.44282 c 0.3485,3.37662 2.6217,6.39977 5.6926,7.57053 2.5485,0.97163 7.9712,0.64489 10.9512,-0.65985 0.3608,-0.15795 0.507,0.0251 0.7589,0.95094 0.1716,0.63064 0.3277,1.49611 0.3469,1.92331 0.032,0.72197 -0.071,0.80933 -1.4661,1.23986 -3.5827,1.10546 -8.6577,1.3162 -11.8101,0.49036 z m 10.0838,-17.94129 c -0.1277,-2.799027 -1.9159,-5.637317 -4.1106,-6.524627 -1.5463,-0.62513 -4.0392,-0.59944 -5.5138,0.0568 -2.1563,0.95968 -4.398,4.059717 -4.8875,6.758997 l -0.1807,0.99642 7.3724,-0.0704 7.3725,-0.0704 z m 34.4634,18.08228 c -2.0591,-0.73353 -3.2887,-2.10865 -3.9865,-4.45849 -0.3165,-1.06587 -0.3944,-3.14756 -0.3944,-10.54058 v -9.212387 h -2.249 -2.2489 v -1.98438 -1.98437 h 2.2489 2.249 v -3.38844 -3.38841 l 1.7859,-0.44202 c 0.9823,-0.2431 2.0538,-0.5181 2.3813,-0.61116 l 0.5953,-0.1692 v 3.99963 3.9996 h 3.7041 3.7042 v 1.98437 1.98438 h -3.7261 -3.726 l 0.09,8.665097 c 0.087,8.39441 0.1083,8.70006 0.6859,9.78413 0.8464,1.58862 1.814,2.01666 4.2111,1.86283 1.8294,-0.1174 1.9363,-0.0936 1.9385,0.43132 0,0.30557 0.075,1.16287 0.1644,1.90514 l 0.1622,1.34953 -1.2077,0.30411 c -1.6397,0.41288 -5.1066,0.36362 -6.382,-0.0907 z m 38.8785,0.11986 c -5.0446,-1.0341 -8.2979,-4.05879 -9.8189,-9.12908 -0.6453,-2.15098 -0.6422,-7.25096 0.01,-9.64599 1.136,-4.198437 3.5841,-7.326207 7.0175,-8.965907 1.9825,-0.94681 2.0347,-0.95597 5.4468,-0.95597 3.3588,0 3.4894,0.0217 5.2083,0.868 4.0677,2.00252 6.2791,6.32444 6.291,12.295017 v 2.31511 h -9.7896 -9.7896 v 0.89818 c 0,0.49398 0.2409,1.67801 0.5353,2.63117 1.0118,3.276 3.7564,5.48032 7.4785,6.00644 1.9303,0.27284 5.5159,-0.10252 7.5549,-0.79086 0.8206,-0.27705 1.5306,-0.46509 1.5778,-0.41789 0.047,0.0472 0.2601,0.83291 0.4731,1.74604 0.444,1.90339 0.4577,1.8823 -1.6123,2.49251 -2.8924,0.8527 -8.0557,1.17139 -10.5833,0.65323 z m 9.1875,-18.2459 c -0.2468,-4.031457 -2.9669,-6.893347 -6.6119,-6.956557 -2.1078,-0.0365 -3.3921,0.47297 -4.9817,1.97633 -1.4069,1.33056 -2.5505,3.429607 -2.8959,5.315187 l -0.1825,0.99642 7.3724,-0.0704 7.3725,-0.0704 z m 67.6499,18.12382 c -1.4963,-0.47818 -3.5117,-2.21073 -4.2694,-3.67011 -0.866,-1.66807 -0.9728,-5.35342 -0.2135,-7.36844 1.4887,-3.95039 6.1552,-6.336 13.2382,-6.76759 l 3.0427,-0.18539 -0.093,-1.32292 c -0.1724,-2.464297 -1.3253,-4.250897 -3.347,-5.186917 -2.0563,-0.95205 -6.2099,-0.5252 -9.0897,0.93411 l -1.2756,0.64641 -0.4738,-1.50411 c -0.2606,-0.82724 -0.5245,-1.63673 -0.5866,-1.79887 -0.1426,-0.37293 2.6876,-1.56464 4.9434,-2.08148 2.2407,-0.51337 6.0902,-0.50945 8.0777,0.008 3.007,0.78322 4.8015,2.40954 6.0063,5.44317 0.5253,1.32286 0.5782,2.09203 0.7533,10.947817 0.1036,5.23875 0.2756,10.03102 0.3823,10.64948 l 0.1938,1.12448 h -2.2544 c -2.5014,0 -2.5757,-0.0528 -2.5757,-1.82962 0,-0.54594 -0.078,-1.07034 -0.1728,-1.16538 -0.095,-0.095 -0.6992,0.31252 -1.3427,0.90567 -1.9806,1.82565 -3.71,2.45747 -6.9512,2.53944 -1.8891,0.0478 -3.1668,-0.0539 -3.9928,-0.31795 z m 8.0322,-3.95264 c 1.3237,-0.63407 3.1921,-2.74809 3.5835,-4.05463 0.173,-0.5774 0.3146,-2.27438 0.3146,-3.77108 v -2.72124 l -2.5797,0.15872 c -5.9682,0.36722 -9.3266,2.62541 -9.3266,6.27121 0,1.43391 0.8568,3.26001 1.867,3.97936 1.4786,1.05286 4.1075,1.11178 6.1412,0.13766 z m 86.2752,4.05998 c -1.7329,-0.28951 -4.3251,-1.25232 -4.3251,-1.6065 0,-0.14885 0.2488,-1.08944 0.5527,-2.0902 l 0.5527,-1.81957 1.2949,0.65622 c 3.945,1.99906 8.2077,1.85909 10.0111,-0.32872 2.1083,-2.55775 0.6608,-5.46613 -3.5876,-7.20804 -3.5457,-1.45383 -4.4159,-1.93419 -5.7537,-3.17627 -1.6872,-1.56657 -2.2631,-2.84959 -2.2705,-5.05836 -0.011,-3.420637 1.3823,-5.678617 4.4315,-7.179757 1.7275,-0.85042 1.8507,-0.87095 5.2144,-0.86823 2.9054,0.003 3.6893,0.0945 5.0036,0.58833 0.8572,0.32205 1.6239,0.65095 1.7038,0.73086 0.08,0.0799 -0.1251,0.98504 -0.4557,2.01133 -0.4956,1.53901 -0.6783,1.83182 -1.0423,1.67072 -1.7793,-0.78751 -4.0914,-1.41955 -5.2139,-1.42532 -2.4765,-0.0127 -4.8847,1.83595 -4.8847,3.7496 0,1.930137 1.3543,3.162557 5.1873,4.720427 4.4644,1.81446 6.3653,3.40511 7.1381,5.97305 0.8339,2.77064 0.2538,5.87769 -1.4608,7.82571 -2.2527,2.55916 -7.0358,3.68009 -12.0958,2.83472 z m 41.3563,-0.14203 c -2.0286,-0.4351 -4.3543,-1.25116 -4.9912,-1.7513 -0.3825,-0.3003 -0.3687,-0.5043 0.1511,-2.2297 0.3146,-1.04452 0.6481,-1.97527 0.7411,-2.0683 0.093,-0.0931 0.7878,0.14428 1.5438,0.5274 3.0862,1.56387 7.9396,2.17238 10.7002,1.34157 3.061,-0.92126 4.9042,-3.2258 4.9087,-6.13744 0.01,-3.76515 -2.0704,-5.74873 -8.6882,-8.30082 -4.3746,-1.68701 -7.3907,-4.292437 -8.4225,-7.275747 -0.5877,-1.69913 -0.5862,-4.85577 0,-6.61459 0.9646,-2.87877 3.7902,-5.48912 7.0434,-6.50703 3.3854,-1.05923 8.4856,-0.9321 11.7142,0.29202 2.2021,0.83487 2.1423,0.71081 1.3974,2.90087 -0.3638,1.06963 -0.71,1.99332 -0.7692,2.05264 -0.059,0.0593 -0.5931,-0.13976 -1.1862,-0.44233 -1.7558,-0.89575 -4.4247,-1.40356 -6.7079,-1.27633 -2.6337,0.14679 -4.7059,1.13618 -5.8808,2.80784 -0.7162,1.01896 -0.804,1.35313 -0.804,3.05872 0,1.63028 0.1046,2.07277 0.7039,2.97846 0.9255,1.39846 3.036,2.76929 6.4945,4.21828 4.0862,1.71194 5.8379,2.712907 7.3579,4.204357 1.5636,1.53422 2.3905,3.10121 2.8016,5.30895 1.1566,6.21249 -2.6318,11.56859 -9.1558,12.94442 -2.3288,0.49109 -6.5876,0.4759 -8.9552,-0.0319 z m 50.7261,0.0551 c -4.9757,-1.13747 -8.3078,-4.46003 -9.4863,-9.45931 -0.5667,-2.40379 -0.5165,-6.56674 0.1087,-9.01133 1.703,-6.658667 6.0633,-10.256947 12.429,-10.256947 6.7,0 10.4279,3.62908 11.4089,11.106517 0.1427,1.0881 0.1841,2.54662 0.092,3.24115 l -0.1676,1.26275 h -9.7896 -9.7895 l 0.1784,1.34527 c 0.4421,3.3324 2.4096,6.24565 4.9887,7.38648 2.6101,1.15459 7.2576,1.16533 10.572,0.0243 0.8337,-0.28697 1.5642,-0.43974 1.6235,-0.33948 0.3436,0.58083 0.7545,3.27353 0.5333,3.49472 -0.1387,0.13867 -1.2003,0.50099 -2.3592,0.80512 -2.7437,0.72012 -8.0463,0.92552 -10.3424,0.40061 z m 9.618,-18.24056 c -0.2996,-2.903007 -1.9948,-5.435467 -4.2932,-6.413737 -1.5144,-0.64458 -3.9318,-0.5774 -5.4823,0.15235 -1.4239,0.67013 -2.8272,2.10835 -3.6747,3.76607 -0.6601,1.291297 -1.3118,3.543987 -1.0895,3.766297 0.081,0.0815 3.4193,0.14824 7.4172,0.14824 h 7.269 z m 297.47972,18.22352 c -4.8411,-1.10085 -8.1409,-4.34904 -9.4002,-9.25312 -0.5261,-2.04872 -0.5246,-6.878 0,-9.11534 1.1798,-5.005257 4.5972,-8.815277 8.9453,-9.973017 1.8382,-0.48943 5.5601,-0.46625 7.3338,0.0457 2.8691,0.82801 5.064,2.87073 6.4413,5.99458 0.8793,1.994427 1.2135,3.839707 1.2135,6.700567 v 2.50053 h -9.8236 -9.8237 l 0.1784,1.34527 c 0.6024,4.54081 3.3877,7.46927 7.756,8.15462 2.0541,0.32226 5.7238,-0.0274 7.8047,-0.74369 0.8337,-0.28697 1.5643,-0.43974 1.6236,-0.33949 0.3435,0.58084 0.7544,3.27353 0.5332,3.49472 -0.1387,0.13867 -1.2003,0.50099 -2.3592,0.80513 -2.7907,0.73247 -8.042,0.92565 -10.4259,0.38357 z m 9.6722,-18.29041 c -0.349,-2.969207 -1.9714,-5.380957 -4.2638,-6.338377 -1.329,-0.55505 -3.9241,-0.57153 -5.2095,-0.0331 -1.4435,0.60462 -3.1986,2.35151 -3.9934,3.97462 -0.7342,1.499467 -1.2884,3.489907 -1.0407,3.737637 0.08,0.0799 3.4161,0.14533 7.4137,0.14533 h 7.2684 z m 34.4201,18.2949 c -2.2837,-0.87566 -3.5845,-2.48658 -4.1295,-5.11399 -0.1777,-0.85649 -0.2909,-4.84611 -0.2909,-10.25261 v -8.850517 h -2.2489 -2.249 v -1.98438 -1.98437 h 2.2411 2.241 l 0.074,-3.36984 0.074,-3.36987 1.6477,-0.44426 c 0.9062,-0.24437 2.0076,-0.52332 2.4474,-0.61994 l 0.7997,-0.17563 v 3.98975 3.98979 h 3.5719 3.5718 v 1.98437 1.98438 h -3.5718 -3.5719 v 8.647717 c 0,8.13202 0.032,8.71347 0.5338,9.75042 0.7669,1.58425 1.8041,2.06685 4.1564,1.93392 l 1.8817,-0.10633 0.1536,0.76813 c 0.3155,1.57713 0.1772,3.0167 -0.3094,3.22136 -0.9547,0.40164 -5.9768,0.40299 -7.0228,0.003 z m 37.9213,-0.1393 c -3.6704,-0.99441 -6.4002,-3.21746 -7.9151,-6.44583 -1.0864,-2.31518 -1.4274,-4.08128 -1.4066,-7.28535 0.042,-6.55061 2.641,-11.362477 7.4088,-13.719387 l 2.0085,-0.99288 h 3.4538 c 3.319,0 3.5208,0.0321 5.1735,0.82246 4.1016,1.96146 6.35,6.23364 6.35,12.065417 v 2.59025 h -9.8264 -9.8265 l 0.1602,1.25677 c 0.5126,4.02145 2.7667,6.89266 6.215,7.91633 2.0912,0.62082 5.9547,0.53674 8.3829,-0.18245 1.0187,-0.30171 2.0197,-0.5728 2.2245,-0.60241 0.4462,-0.0645 1.2683,3.17381 0.8994,3.54269 -0.6105,0.61045 -4.5975,1.34631 -7.8864,1.4555 -2.8729,0.0954 -3.7651,0.0259 -5.4156,-0.42111 z m 10.1208,-18.18746 c -0.1121,-2.709627 -1.8509,-5.335457 -4.176,-6.306497 -1.3238,-0.55285 -3.9226,-0.57217 -5.1963,-0.0386 -1.2707,0.53229 -3.0149,2.13103 -3.7916,3.47538 -0.7161,1.239617 -1.5244,3.810017 -1.3081,4.160037 0.082,0.13192 3.3196,0.20508 7.3377,0.16576 l 7.1916,-0.0704 z m 68.1875,18.48244 c -3.4513,-1.12644 -5.2798,-3.5252 -5.5003,-7.21585 -0.381,-6.37685 4.5555,-10.25475 13.6601,-10.73097 2.2173,-0.11599 3.0375,-0.25363 3.1426,-0.52739 0.2527,-0.65866 -0.4406,-3.338087 -1.1355,-4.388197 -0.9644,-1.45727 -2.8767,-2.29817 -5.2339,-2.30153 -2.1364,-0.003 -4.6128,0.58029 -6.2025,1.46098 -0.7927,0.43923 -1.1702,0.53337 -1.2462,0.31086 -0.06,-0.17558 -0.3418,-0.94811 -0.6265,-1.71673 l -0.5175,-1.39752 0.5731,-0.37135 c 0.3152,-0.20423 1.5256,-0.69561 2.6898,-1.09193 3.0091,-1.02447 7.4968,-1.20701 10.116,-0.41146 3.1598,0.95978 5.0181,2.84774 6.0287,6.12498 0.4555,1.47693 0.5115,2.748827 0.7403,16.801037 l 0.084,5.15937 h -2.1676 -2.1676 l -0.1654,-0.82682 c -0.091,-0.45474 -0.1653,-1.24495 -0.1653,-1.75599 v -0.92919 l -1.3314,1.24534 c -2.1306,1.9929 -3.8162,2.63366 -7.1353,2.71238 -1.528,0.0362 -3.0758,-0.0313 -3.4396,-0.15002 z m 7.6433,-4.11681 c 1.1862,-0.61341 2.6631,-2.18125 3.2294,-3.42818 0.3869,-0.85193 0.494,-1.73321 0.4986,-4.10162 l 0.01,-3.01652 -2.5797,0.15872 c -4.7405,0.29168 -7.6584,1.70781 -8.8329,4.28684 -1.3232,2.90528 0.3785,6.20575 3.4751,6.74004 1.1804,0.20368 3.154,-0.0965 4.2036,-0.63928 z m 85.7912,3.94295 c -2.1522,-0.46704 -4.0053,-1.17401 -4.0053,-1.52807 0,-0.15182 0.2588,-1.07966 0.5752,-2.06187 l 0.5752,-1.78586 1.2724,0.64481 c 2.5533,1.29387 5.5722,1.74588 7.7047,1.15367 1.3758,-0.38206 2.7679,-1.67609 3.1403,-2.91905 0.6959,-2.32277 -0.8015,-4.28159 -4.4211,-5.78334 -4.7515,-1.97135 -6.5201,-3.29472 -7.5251,-5.63078 -1.2122,-2.818047 -0.2242,-6.814627 2.1496,-8.694707 1.8169,-1.43904 3.2897,-1.92225 6.2201,-2.04084 2.8421,-0.11501 4.7546,0.17254 6.6119,0.99415 l 1.1378,0.50331 -0.5531,1.67326 c -0.3042,0.9203 -0.6357,1.76553 -0.7367,1.8783 -0.1009,0.11274 -0.889,-0.12121 -1.7512,-0.51991 -2.048,-0.94697 -5.28,-1.05034 -6.6994,-0.21428 -1.9883,1.17115 -2.6485,3.46352 -1.4613,5.073827 0.5352,0.72594 2.9478,2.06161 6.5637,3.63376 2.0933,0.91017 3.925,2.44092 4.7367,3.95849 0.4909,0.91762 0.5843,1.51524 0.5843,3.73808 0,2.21184 -0.094,2.82239 -0.5762,3.72221 -0.7336,1.37062 -2.4458,2.92119 -3.9266,3.5559 -2.5001,1.07167 -6.4419,1.3377 -9.6159,0.64894 z m -1591.09282,-0.84944 c 0.3513,-1.89873 1.3604,-10.27586 1.2588,-10.45104 -0.063,-0.10915 -1.12,-0.19844 -2.3484,-0.19844 h -2.2333 v -1.71979 -1.7198 h 2.6458 c 1.4552,0 2.6458,-0.0466 2.6458,-0.10353 0,-0.0569 0.2373,-1.87261 0.5273,-4.03489 0.29,-2.162257 0.5281,-3.961127 0.5292,-3.997507 0,-0.0364 -1.1292,-0.0661 -2.5117,-0.0661 h -2.5135 v -1.71979 -1.71979 h 2.7487 2.7487 l 0.1521,-0.8599 c 0.084,-0.47294 0.3962,-2.70536 0.6945,-4.96093 0.7705,-5.82515 0.5293,-5.29167 2.3923,-5.29167 1.9082,0 1.8339,-0.48268 0.9362,6.08012 -0.348,2.54373 -0.576,4.71663 -0.5068,4.82865 0.1708,0.27628 5.5845,0.26069 5.7559,-0.0164 0.075,-0.12116 0.4622,-2.62147 0.8608,-5.55625 l 0.7247,-5.33599 h 1.6683 c 1.9947,0 1.8921,-0.59806 1.0193,5.94429 -0.3489,2.61453 -0.5766,4.84695 -0.5062,4.96094 0.071,0.11401 1.1332,0.20727 2.3615,0.20727 h 2.2333 v 1.71979 1.71979 h -2.6225 -2.6226 l -0.1507,0.99219 c -0.083,0.5457 -0.273,2.004217 -0.4226,3.241147 -0.1496,1.23692 -0.3357,2.63591 -0.4137,3.10885 l -0.1418,0.8599 h 2.5255 2.5255 v 1.71979 1.71979 h -2.7508 -2.7508 l -0.3025,2.18281 c -0.1663,1.20055 -0.507,3.73063 -0.7569,5.6224 l -0.4545,3.43958 -1.789,0.0783 -1.789,0.0784 0.1567,-1.00441 c 0.5493,-3.52202 1.3524,-10.03265 1.258,-10.19865 -0.1702,-0.29938 -5.5814,-0.23932 -5.7688,0.064 -0.089,0.14438 -0.4769,2.70422 -0.8615,5.68854 l -0.6993,5.42607 h -1.7934 -1.7933 l 0.1347,-0.7276 z m 11.4937,-14.34455 c 0,-0.30765 0.7378,-5.872977 0.9395,-7.086697 l 0.1429,-0.8599 h -3.0204 -3.0204 l -0.4422,3.505727 c -0.2432,1.92815 -0.499,3.77362 -0.5685,4.10104 -0.1253,0.59021 -0.1003,0.59531 2.9214,0.59531 1.7831,0 3.0477,-0.10601 3.0477,-0.25548 z m 33.3375,1.04923 V 60.291164 h 2.0884 c 2.4218,0 2.4096,-0.013 2.4096,2.53518 0,1.826 0.223,2.10312 0.8099,1.00648 0.6306,-1.1784 2.8479,-2.95696 4.4284,-3.55224 2.0158,-0.75925 5.9656,-0.6545 7.594,0.20137 1.3445,0.70668 2.6263,1.96961 3.4833,3.43183 l 0.6712,1.14541 0.7266,-1.00309 c 1.1547,-1.59398 3.1226,-3.17302 4.681,-3.75613 1.8353,-0.68667 5.2511,-0.73202 7.1256,-0.0946 1.86,0.63251 4.0767,2.90547 4.8505,4.97358 0.989,2.64329 1.0836,3.837567 1.0836,13.669117 v 9.48888 h -2.5013 -2.5014 l -0.078,-9.72344 c -0.077,-9.58 -0.088,-9.74389 -0.7052,-11.110267 -1.8919,-4.18486 -6.5227,-4.86429 -9.6396,-1.41431 -1.9038,2.107247 -1.8838,1.979347 -1.9802,12.656877 l -0.087,9.59114 h -2.4864 -2.4864 l -0.078,-9.87517 -0.078,-9.87518 -0.7978,-1.559237 c -2.3957,-4.68215 -8.3367,-3.94618 -10.7647,1.333547 -0.5927,1.28894 -0.6104,1.56244 -0.6871,10.64948 l -0.079,9.32656 h -2.5009 -2.501 z m 110.8605,0 V 60.291164 h 2.0836 2.0836 l 0.1653,0.82682 c 0.091,0.45477 0.1709,1.67516 0.1777,2.71198 l 0.012,1.88516 0.6667,-1.28125 c 0.8244,-1.58448 2.5372,-3.32594 3.9389,-4.00489 0.6405,-0.31025 1.8155,-0.55449 2.9766,-0.61873 l 1.9182,-0.1061 v 2.41017 2.41017 l -1.6537,0.006 c -2.0052,0.007 -3.3935,0.59547 -4.7494,2.01316 -2.2155,2.316457 -2.5881,4.375547 -2.5907,14.319037 v 7.47448 h -2.5136 -2.5135 v -14.02292 z m 36.5125,-6.482287 v -20.5052 h 2.5135 2.5135 l 0.014,12.89843 0.014,12.898437 0.846,-1.02658 c 0.4653,-0.56462 2.874,-3.42212 5.3527,-6.349997 l 4.5068,-5.32342 3.2577,-0.0745 3.2578,-0.0745 -5.3833,5.73503 c -2.9608,3.154257 -5.3542,5.834777 -5.3187,5.956697 0.035,0.12195 2.6594,3.70641 5.8309,7.96552 3.1715,4.2591 5.8581,7.89265 5.9703,8.07455 0.1588,0.25747 -0.4914,0.33073 -2.9355,0.33073 h -3.1396 l -4.7474,-6.6222 -4.7474,-6.62221 -1.3891,1.47516 -1.389,1.47519 v 5.14702 5.14704 h -2.5136 -2.5135 V 67.831774 Z m 91.0143,7.871357 c 0,-6.94862 -0.077,-13.258927 -0.1691,-14.022917 l -0.1669,-1.38906 h 2.2859 2.2858 v 0.85989 c 0,0.47295 0.078,1.48852 0.17,2.25682 l 0.1678,1.39695 0.4678,-0.7692 c 0.7673,-1.26166 2.2958,-2.64041 3.765,-3.39606 1.807,-0.92945 5.5047,-1.17591 7.5333,-0.50215 1.6619,0.552 3.3167,1.96099 4.2761,3.6408 l 0.7469,1.30765 0.9592,-1.30673 c 1.0584,-1.44182 2.0742,-2.29486 3.872,-3.25135 1.0572,-0.56253 1.5315,-0.6335 4.2333,-0.6335 2.8856,0 3.1168,0.041 4.4774,0.79375 2.5624,1.41764 4.2312,4.21818 4.7818,8.024257 0.1404,0.97092 0.2577,5.78369 0.2606,10.69501 v 8.92969 h -2.5136 -2.5135 v -8.71823 c 0,-9.02266 -0.1419,-10.6145 -1.1218,-12.580727 -0.6973,-1.39932 -1.2026,-1.94566 -2.3178,-2.50592 -1.4429,-0.72493 -2.66,-0.84741 -4.113,-0.41391 -1.7056,0.50882 -2.9921,1.59723 -3.9657,3.35491 l -0.7848,1.417007 -0.078,9.72343 -0.078,9.72344 h -2.4865 -2.4864 l -0.081,-9.72344 c -0.079,-9.50531 -0.095,-9.75312 -0.6906,-11.046347 -1.4219,-3.08621 -3.7453,-4.28257 -6.6448,-3.42151 -1.8838,0.55941 -3.7051,2.36344 -4.4817,4.439257 -0.5394,1.44174 -0.5671,1.96029 -0.5671,10.63384 v 9.1182 h -2.5135 -2.5136 v -12.63385 z m 168.8065,-6.81302 V 49.443244 h 2.5135 2.5136 v 17.33021 17.330207 h 8.3344 8.3343 v 2.11666 2.11667 h -10.8479 -10.8479 z m 131.3958,18.58698 c 0.5864,-3.90174 1.3426,-10.15826 1.2472,-10.31875 -0.065,-0.10915 -1.123,-0.19844 -2.3513,-0.19844 h -2.2334 v -1.71979 -1.7198 h 2.6459 c 1.4552,0 2.6458,-0.0965 2.6458,-0.21455 0,-0.118 0.2381,-1.92645 0.5292,-4.01878 0.291,-2.092317 0.5291,-3.841247 0.5291,-3.886487 0,-0.0452 -1.1311,-0.0823 -2.5135,-0.0823 h -2.5136 v -1.71979 -1.71979 h 2.7782 c 1.5279,0 2.7781,-0.0391 2.7781,-0.0869 0,-0.29599 1.3535,-9.94497 1.4631,-10.43027 0.1211,-0.53602 0.2921,-0.59531 1.717,-0.59531 1.9082,0 1.8338,-0.48268 0.9361,6.08012 -0.3479,2.54373 -0.5759,4.71663 -0.5067,4.82865 0.1707,0.27628 5.5845,0.26069 5.7558,-0.0164 0.075,-0.12116 0.4623,-2.62147 0.8609,-5.55625 l 0.7247,-5.33599 h 1.6683 c 1.4125,0 1.6683,0.071 1.6683,0.46302 0,0.25466 -0.2977,2.71341 -0.6615,5.46389 -0.3638,2.75047 -0.6614,5.04243 -0.6614,5.09323 0,0.0508 1.0715,0.0924 2.3812,0.0924 h 2.3813 v 1.71979 1.71979 h -2.6226 -2.6226 l -0.1507,0.99219 c -0.083,0.5457 -0.273,2.004217 -0.4225,3.241147 -0.1496,1.23692 -0.3358,2.63591 -0.4138,3.10885 l -0.1418,0.8599 h 2.5255 2.5256 v 1.71979 1.71979 h -2.7508 -2.7508 l -0.3025,2.18281 c -0.1664,1.20055 -0.507,3.73063 -0.757,5.6224 l -0.4544,3.43958 -1.7983,0.0786 -1.7982,0.0786 0.1558,-0.8723 c 0.3997,-2.23846 1.3593,-10.27788 1.2408,-10.39633 -0.2493,-0.24932 -5.5693,-0.13454 -5.7288,0.12359 -0.087,0.14126 -0.4792,2.7011 -0.8707,5.68854 l -0.712,5.43168 h -1.7741 -1.7741 l 0.1292,-0.85989 z m 11.4792,-14.21226 c 0,-0.30765 0.7378,-5.872977 0.9394,-7.086697 l 0.1429,-0.8599 h -3.0203 -3.0204 l -0.4538,3.505727 c -0.2496,1.92815 -0.5161,3.77362 -0.5922,4.10104 -0.1374,0.59113 -0.1168,0.59531 2.933,0.59531 1.7983,0 3.0714,-0.10588 3.0714,-0.25548 z m 35.8019,-4.38335 -6.3665,-19.455467 2.7973,0.0747 2.7973,0.0748 3.803,12.03855 c 2.0917,6.621187 4.3792,14.122127 5.0834,16.668737 0.7042,2.54662 1.3424,4.45162 1.4183,4.23334 0.076,-0.21828 0.6235,-2.06375 1.2169,-4.10104 0.5935,-2.0373 3.0126,-9.38872 5.3757,-16.336517 l 4.2967,-12.63234 2.7402,-0.003 c 2.0807,0 2.7113,0.0781 2.6198,0.32922 -0.066,0.18191 -3.1923,8.933 -6.9467,19.446877 l -6.8262,19.11614 h -2.8213 -2.8214 l -6.3665,-19.4555 z m 174.2754,7.21852 c 0,-6.73034 -0.078,-13.040647 -0.1706,-14.022907 l -0.1686,-1.78594 h 2.2872 2.2872 v 2.64583 c 0,1.45521 0.095,2.64584 0.2114,2.64584 0.1163,0 0.3595,-0.40953 0.5405,-0.91004 0.4496,-1.24333 2.5256,-3.49387 3.8485,-4.17205 0.6925,-0.35497 1.7857,-0.60336 3.0064,-0.68308 l 1.9182,-0.12525 v 2.41604 2.41604 l -1.5214,0.003 c -3.4868,0.006 -6.0803,2.36746 -6.9127,6.294277 -0.1826,0.86174 -0.2972,4.50707 -0.2972,9.45885 v 8.05677 h -2.5135 -2.5135 v -12.23697 z m 81.226,-0.79375 c 0,-7.1669 -0.077,-13.477207 -0.1669,-14.022907 l -0.164,-0.99219 h 2.2786 c 2.6136,0 2.4972,-0.12795 2.6178,2.87671 l 0.068,1.68611 0.8743,-1.22031 c 1.0595,-1.47865 2.7575,-2.68804 4.7698,-3.39709 2.2367,-0.78815 5.9837,-0.60249 8.0282,0.39777 1.7279,0.8454 3.4853,2.63903 4.2257,4.31284 1.1182,2.5278 1.2748,4.249287 1.2797,14.063237 v 9.32656 h -2.4904 -2.4904 l -0.1072,-9.32656 c -0.1185,-10.30772 -0.2245,-11.04641 -1.8727,-13.045937 -2.4354,-2.95455 -7.4755,-2.56329 -9.9995,0.7762 -1.6195,2.142647 -1.6434,2.311877 -1.7578,12.402027 l -0.1042,9.19427 h -2.4952 -2.4951 v -13.03073 z m 182.2393,-0.99224 -0.071,-14.022967 2.1451,6e-5 2.1451,5e-5 0.17,1.62631 c 0.093,0.89448 0.1722,2.11487 0.1748,2.71198 v 1.08567 l 0.7877,-1.45521 c 1.5904,-2.9383 4.0826,-4.49792 7.1873,-4.49792 h 1.5404 v 2.38125 2.38125 l -1.6536,0.006 c -1.0278,0.004 -2.0543,0.18878 -2.712,0.48922 -1.4709,0.67188 -3.1203,2.56325 -3.8556,4.421237 -0.5968,1.50796 -0.6234,1.88724 -0.7191,10.23112 l -0.099,8.6651 h -2.487 -2.4871 l -0.071,-14.02297 z m 44.749,13.29537 c -2.3286,-6.08034 -10.2916,-27.136887 -10.2916,-27.214057 0,-0.0573 1.2325,-0.10417 2.7388,-0.10417 h 2.7388 l 1.21,3.50573 c 3.1466,9.116507 6.2063,18.121547 6.3603,18.719267 0.1707,0.66222 0.2846,0.35089 6.4883,-17.727077 l 1.4982,-4.36563 2.7439,-0.0757 c 2.1536,-0.0594 2.7146,-0.003 2.6073,0.26458 -0.075,0.1872 -2.5491,6.50182 -5.4975,14.032517 l -5.3607,13.69219 h -2.4786 c -2.4599,0 -2.4807,-0.006 -2.7572,-0.7276 z m 38.3917,-13.29532 V 60.291164 h 2.5136 2.5135 v 14.022907 14.02292 h -2.5135 -2.5136 z m 30.95512,2.97657 c 0,-6.0755 -0.078,-12.385807 -0.1727,-14.022917 l -0.1716,-2.97656 h 2.2581 2.2581 l 0.1879,2.25515 0.1878,2.25515 0.7301,-1.00785 c 1.0057,-1.38827 2.2658,-2.40491 3.9839,-3.214 1.2907,-0.60783 1.7848,-0.68533 4.3698,-0.68533 2.7683,0 3.0046,0.0443 4.7077,0.88207 2.0812,1.02375 3.4987,2.61374 4.4617,5.00436 0.5996,1.4886 0.6148,1.75201 0.6946,12.039087 l 0.082,10.51719 h -2.5275 -2.5275 v -9.10026 c 0,-8.33668 -0.044,-9.24325 -0.5264,-10.80445 -0.5838,-1.890207 -1.8695,-3.455237 -3.3451,-4.071747 -1.1591,-0.48432 -3.7636,-0.46456 -4.9656,0.0377 -1.3891,0.58041 -3.0013,2.13513 -3.8173,3.681357 l -0.7071,1.33971 -0.079,9.45886 -0.079,9.45885 h -2.501 -2.5011 v -11.04635 z m 101.6274,-7.93896 c -3.4053,-10.440317 -6.2469,-19.190747 -6.3147,-19.445417 -0.1116,-0.41915 0.1365,-0.46291 2.6196,-0.46201 h 2.7428 l 2.0993,6.67975 c 1.1546,3.67384 3.027,9.63581 4.1609,13.248767 1.1338,3.61299 2.4278,7.95877 2.8755,9.65729 0.4477,1.69855 0.8788,3.26684 0.9579,3.48512 0.079,0.21828 0.6591,-1.38906 1.2889,-3.57188 0.6299,-2.18281 3.0947,-9.68375 5.4773,-16.668747 l 4.332,-12.69999 2.7328,-0.0758 c 2.5148,-0.0697 2.7227,-0.0381 2.6056,0.39687 -0.1127,0.41873 -13.1218,36.814837 -13.5743,37.977337 -0.156,0.40082 -0.5585,0.46284 -2.9961,0.46157 l -2.816,-0.003 -6.1915,-18.98242 z m 174.0696,5.78922 c 0,-7.257837 -0.074,-13.568147 -0.1653,-14.022917 l -0.1654,-0.82682 h 2.282 2.282 l 0.02,1.52135 c 0.011,0.83675 0.1001,2.04851 0.1985,2.69283 l 0.1788,1.17149 0.6536,-1.39782 c 1.2739,-2.72433 4.0784,-4.51702 7.0665,-4.51702 h 1.4081 v 2.38125 2.38125 h -1.5356 c -2.9895,0 -5.4078,1.89691 -6.5702,5.153767 -0.4107,1.15062 -0.4865,2.48883 -0.5662,9.99363 l -0.092,8.6651 h -2.4972 -2.4971 z m 81.1655,-0.82688 -0.071,-14.022967 2.3151,6e-5 2.3151,5e-5 v 1.78594 c 0.01,2.24895 0.2675,2.74777 0.9208,1.75069 0.8129,-1.24066 2.0472,-2.23872 3.8377,-3.10316 1.5924,-0.76883 1.9256,-0.83035 4.4979,-0.83035 2.1045,0 3.0971,0.12301 4.0936,0.50732 1.642,0.63325 3.6967,2.52714 4.5336,4.17872 1.2881,2.5419 1.4188,3.843177 1.4231,14.165527 v 9.59114 h -2.4957 -2.4956 l -0.09,-9.45885 c -0.086,-9.04746 -0.1159,-9.52273 -0.6787,-10.92769 -1.0495,-2.619977 -3.0197,-3.959887 -5.8067,-3.949297 -2.7195,0.0103 -5.052,1.60935 -6.3201,4.332757 -0.6241,1.34038 -0.6286,1.4161 -0.6311,10.67652 v 9.32656 h -2.6413 -2.6412 l -0.071,-14.02297 z M -1020.6907,54.995364 c -1.5034,-1.18255 -1.5102,-3.83095 -0.013,-5.00877 0.7632,-0.60036 2.9083,-0.75295 3.809,-0.27093 0.7658,0.40986 1.3083,1.67121 1.3083,3.0421 0,1.00018 -0.1415,1.36559 -0.7734,1.9975 -0.6653,0.66532 -0.9746,0.7734 -2.2133,0.7734 -1.043,0 -1.6267,-0.147 -2.1178,-0.5333 z m -1133.429,-35.01162 c -3.1162,-0.86439 -7.8357,-4.36607 -10.6871,-7.92948 -3.4813,-4.3504601 -3.658,-5.6046401 -1.9826,-14.0724701 3.2321,-16.3363299 6.013,-26.3508899 12.7258,-45.8286939 3.8171,-11.07559 5.522,-16.28508 5.5285,-16.89306 0,-0.15407 -0.9604,-1.3447 -2.138,-2.64584 -5.6674,-6.26231 -5.5894,-7.75216 0.7034,-13.41929 2.7583,-2.48412 3.7475,-2.97768 6.4835,-3.23482 l 1.7386,-0.16341 0.9665,-2.2991 c 0.5315,-1.26452 2.4121,-6.22818 4.1791,-11.03037 5.626,-15.29009 11.7569,-30.8252 17.3855,-44.05312 6.8954,-16.20512 8.2005,-19.32361 11.6949,-27.94342 4.8302,-11.9149 6.5417,-15.82158 7.2808,-16.619 0.9344,-1.0083 2.2135,-1.11985 3.914,-0.34137 1.9517,0.89355 3.3686,2.23928 4.4423,4.21926 0.8814,1.62552 0.8988,1.71897 0.8713,4.7012 -0.038,4.09746 -0.9315,8.5908 -3.4343,17.26419 -3.7156,12.87618 -7.5121,24.81873 -16.3808,51.52747 -4.8562,14.62484 -8.9087,27.02949 -9.0054,27.5659 -0.1738,0.96372 -0.1639,0.97753 0.8419,1.16621 1.1126,0.20873 2.1266,-0.0124 8.692,-1.89508 22.6143,-6.48497 43.6349,-17.24057 65.3521,-33.43854 7.2983,-5.44349 11.6922,-9.14231 18.9481,-15.95089 14.3177,-13.43485 23.6385,-28.39294 27.1119,-43.50951 1.318,-5.73643 1.1869,-13.06869 -0.3275,-18.31382 -1.9181,-6.64297 -5.7685,-11.71427 -12.1167,-15.95861 -9.0899,-6.07742 -20.9752,-9.93158 -36.2716,-11.76218 -3.2391,-0.38764 -6.0751,-0.47424 -15.6004,-0.47638 -11.8479,-0.003 -15.0785,0.15846 -24.2094,1.20753 -37.2684,4.28186 -80.931,18.40487 -117.489,38.00274 -28.0211,15.02145 -53.5247,33.51514 -72.8884,52.8544 -13.889,13.87139 -25.1266,29.82288 -28.5205,40.48427 -1.8572,5.83372 -2.412,9.93838 -2.2175,16.40329 0.341,11.32784 3.3155,20.46801 8.2749,25.42749 3.1902,3.190164 7.0389,4.864284 12.707,5.527334 3.5593,0.41635 4.4916,0.7756 4.757,1.83309 0.4035,1.60763 -0.928,2.20001 -4.2652,1.89761 -2.9601,-0.26823 -5.7942,-1.08775 -8.7177,-2.52084 -6.2954,-3.08597 -11.1405,-8.338264 -14.4493,-15.663734 -5.9758,-13.22983 -7.359,-27.10018 -4.0399,-40.50919 2.7236,-11.00267 13.4429,-28.36394 26.8883,-43.54898 6.2304,-7.03644 16.8515,-17.27269 25.5999,-24.67221 31.9513,-27.02494 72.628,-49.17456 113.1094,-61.59124 20.636,-6.3296 39.6723,-10.22556 57.2822,-11.72337 6.3065,-0.53642 25.9613,-0.45561 31.2209,0.12835 23.5527,2.61493 41.9473,10.42614 58.2186,24.7224 4.806,4.22259 8.8898,8.70598 13.3781,14.68694 4.8197,6.4226 8.5686,15.9703 9.3756,23.87806 1.2291,12.04344 -4.8928,29.53864 -15.2234,43.50581 -6.1655,8.33593 -16.531,18.66021 -27.731,27.62091 -10.9551,8.76467 -24.2034,17.43951 -37.2242,24.37397 -14.2889,7.60984 -30.9031,13.51396 -49.4771,17.58246 -7.0583,1.54607 -6.8526,1.51331 -12.5543,2.00009 -4.9794,0.42514 -5.3678,0.57119 -6.4278,2.41663 -0.607,1.05688 -10.9747,31.966614 -13.126,39.133464 -2.7437,9.1402899 -4.8998,17.91384995 -7.0808,28.81307 -0.7251,3.62344 -1.4811,6.9777 -1.6801,7.45389 -0.6665,1.5952 -2.3033,2.19327 -4.4061,1.60999 z m 949.3564,-4.78464 c -3.0613,-0.84897 -6.5773,-3.24186 -9.6974,-6.5999801 -2.524,-2.7165 -3.6065,-4.59917 -3.7449,-6.51351 -0.097,-1.33691995 0.026,-1.83771995 1.0151,-4.13539 2.0008,-4.6487 2.3604,-5.67155 4.7794,-13.5944699 5.6074,-18.36629 11.7159,-35.703334 22.1404,-62.838544 3.5881,-9.33971 19.1609,-49.36254 21.3762,-54.93784 1.438,-3.61895 1.2995,-4.18627 -1.9228,-7.87191 -3.8699,-4.42648 -5.0218,-7.29256 -3.5575,-8.85124 0.7575,-0.8064 2.113,-1.13525 6.1403,-1.48976 6.3234,-0.55666 6.8892,-1.06564 10.1541,-9.13466 3.81,-9.41645 6.8138,-16.15263 11.0162,-24.7046 2.1719,-4.4197 3.9488,-8.31307 3.9488,-8.65195 0,-0.33885 -0.1827,-0.71837 -0.4061,-0.84339 -0.5975,-0.33438 -14.786,2.31204 -21.5543,4.02027 -8.2594,2.08459 -10.4735,2.36974 -18.5208,2.38535 l -6.7469,0.013 -2.3133,-1.23995 c -4.1447,-2.22149 -6.7692,-4.59316 -9.1949,-8.30905 -1.4913,-2.28433 -1.6625,-2.75381 -1.541,-4.22606 0.1179,-1.42745 1.0958,-2.02247 4.2182,-2.56656 1.3646,-0.23776 7.4221,-1.27339 13.4612,-2.3014 12.3287,-2.09868 12.689,-2.17742 13.3619,-2.921 0.4703,-0.5197 0.4661,-0.55301 -0.1554,-1.2228 l -0.6388,-0.68858 -4.6302,0.14036 c -3.994,0.12105 -5.6845,0.32565 -12.3031,1.48908 -21.9286,3.85458 -36.3818,6.88152 -49.3448,10.33431 -5.2594,1.40089 -8.8673,2.44943 -19.8438,5.76696 -16.9881,5.13453 -33.1312,9.15577 -50.0062,12.45661 -19.9349,3.89932 -27.8733,3.88019 -35.389,-0.0853 -3.9525,-2.08545 -8.0583,-5.92973 -11.1425,-10.4327 -2.1085,-3.07851 -2.681,-4.6604 -2.681,-7.4076 0,-2.1668 0.6202,-4.50458 3.9744,-14.98012 0.6057,-1.89177 1.1624,-4.09443 1.237,-4.89479 0.1237,-1.32633 0.073,-1.51379 -0.5763,-2.11667 -0.7057,-0.65556 -0.7537,-0.66127 -5.3856,-0.64095 -5.5152,0.0241 -8.7698,0.50432 -16.9277,2.49732 -11.8014,2.88311 -19.9873,5.69193 -34.2312,11.74575 l -0.977,0.41527 0.4267,1.25952 c 0.2347,0.69276 1.057,2.39064 1.8273,3.77309 6.0669,10.88821 6.9943,23.18565 2.7206,36.07607 -1.3981,4.21722 -4.4224,10.36859 -7.0438,14.32705 -6.5417,9.87854 -18.9955,23.07299 -32.0228,33.92723 -16.5561,13.79445 -40.3241,29.34197 -64.6279,42.27541 -4.4676,2.37749 -44.4441,22.62759 -45.3459,22.96996 -0.489,0.18566 -0.489,0.20066 0,0.74514 0.5765,0.64191 -1.2555,0.72086 16.1095,-0.69434 16.0478,-1.30786 25.3631,-2.18133 53.7325,-5.03836 18.3863,-1.85166 25.8554,-2.50706 28.575,-2.5074 h 3.6821 l 0.7073,-1.124 c 0.3891,-0.6182 1.8835,-3.44572 3.321,-6.28338 7.2818,-14.37428 15.5267,-25.55536 28.1002,-38.10703 6.7667,-6.755 10.0134,-9.5559 14.5247,-12.53051 4.2774,-2.82043 5.0926,-3.16129 7.8509,-3.28276 2.6881,-0.1184 4.3007,0.33208 6.6425,1.85549 1.961,1.27574 5.4753,4.91165 6.2093,6.42419 0.5507,1.1348 0.642,1.70529 0.642,4.01188 v 2.68896 l -2.1643,4.3225 c -3.8029,7.59502 -8.4936,15.18893 -12.8835,20.85715 -2.745,3.54433 -9.1614,10.01313 -12.072,12.17051 -4.5675,3.3855 -8.1895,4.58867 -13.3904,4.44804 -3.542,-0.0958 -3.8891,0.0758 -5.5059,2.72109 -3.5099,5.74264 -9.1471,17.98923 -9.5376,20.719864 l -0.1854,1.29625 1.3039,-0.15444 c 0.9616,-0.11388 2.4071,-0.75994 5.5064,-2.46108 2.3113,-1.268674 5.0385,-2.841144 6.0604,-3.494404 4.2892,-2.74193 49.9348,-37.75312 52.39,-40.1842 0.9798,-0.97028 3.6344,-4.09543 5.899,-6.94478 6.7611,-8.50693 13.4207,-14.80322 19.9227,-18.83587 3.1501,-1.95379 4.6372,-2.42517 7.2517,-2.29859 2.751,0.13319 3.9962,0.69611 8.107,3.66485 l 3.2523,2.34878 0.7103,-0.58618 c 0.3907,-0.3224 1.3232,-1.08773 2.0721,-1.70077 3.0519,-2.49791 5.3212,-1.74117 10.9798,3.66138 3.3375,3.18648 3.9605,4.278 3.808,6.67195 -0.098,1.53281 -0.3317,2.06007 -3.2518,7.32178 -4.8058,8.65955 -7.5867,14.84263 -9.914,22.04278 -1.9809,6.12846 -1.5996,6.64882 2.6494,3.61521 6.5412,-4.67013 12.1059,-9.63307 18.9496,-16.90044 6.8572,-7.28162 7.4875,-8.23859 11.5621,-17.55526 4.1479,-9.48396 7.6749,-16.9918 12.8976,-27.45425 11.5586,-23.15525 17.7817,-33.62039 26.4324,-44.45 4.2361,-5.30312 5.5346,-6.35 7.8762,-6.35 1.873,0 5.2573,2.29169 8.6642,5.86695 2.2126,2.32196 2.9274,3.34098 3.2843,4.68204 0.5082,1.90926 0,3.29396 -2.4436,6.7124 -1.1733,1.63859 -3.0298,4.22939 -4.1256,5.75736 -4.6944,6.54593 -11.1512,16.92923 -16.3708,26.32604 -6.269,11.28591 -18.6606,35.58739 -24.0075,47.08163 -12.1652,26.15151 -19.2323,46.961704 -17.1062,50.371574 0.3717,0.59603 2.2008,-0.0844 6.7771,-2.521 5.0334,-2.68002 9.1626,-5.37371 15.6104,-10.183784 12.4135,-9.26045 22.7795,-18.90557 30.928,-28.77735 5.6417,-6.83488 6.6259,-7.6486 9.5325,-7.88194 1.4089,-0.11308 1.9094,-0.0287 3.1212,0.52605 4.4044,2.01636 5.5553,6.3392 2.703,10.15264 -0.6616,0.8846 -18.7726,16.68078 -26.8378,23.40766 -6.043,5.040204 -11.6814,9.478674 -20.1299,15.845844 -10.6952,8.06053 -15.6077,10.30925 -20.3154,9.29965 -4.4763,-0.96001 -9.5214,-5.2705 -11.9604,-10.21889 -1.9262,-3.90803 -2.8904,-9.76445 -2.3676,-14.379794 0.2613,-2.30664 1.3858,-7.66961 2.8933,-13.79834 0.4117,-1.67349 0.8168,-3.49702 0.9004,-4.0523 l 0.152,-1.00963 -1.6468,1.53879 c -11.4474,10.697 -14.0778,12.84465 -16.9826,13.8656 -2.7461,0.9652 -5.6124,0.53729 -8.2843,-1.23669 -1.9343,-1.28431 -6.3916,-5.62226 -7.9314,-7.71895 l -1.216,-1.6559 -1.0271,0.99444 c -0.5649,0.54694 -3.0117,3.60674 -5.4374,6.79958 -5.4022,7.11065 -7.7383,9.78011 -10.5327,12.035684 -7.0211,5.66735 -13.131,7.10406 -18.5685,4.36623 -4.9173,-2.47589 -8.541,-6.576804 -9.7175,-10.996934 -0.4613,-1.73323 -0.4694,-5.86615 -0.018,-9.0539 0.3631,-2.56226 0.2712,-2.78252 -0.965,-2.31254 -0.3792,0.1442 -6.4512,5.07524 -13.4933,10.95787 -19.0954,15.951504 -23.3394,18.978464 -29.638,21.138924 -2.1417,0.73458 -2.7961,0.83872 -5.3506,0.85132 -2.3776,0.0116 -3.2345,-0.0974 -4.6806,-0.59619 -2.5402,-0.87614 -4.7654,-2.40961 -7.506,-5.17271 -2.7859,-2.80868 -4.3587,-5.28394 -5.3846,-8.47412 -0.8459,-2.630284 -1.0885,-2.972094 -2.3851,-3.360584 -1.4385,-0.43098 -18.6722,0.67699 -33.3572,2.144524 -10.28,1.02733 -12.6231,1.21315 -46.5667,3.69279 -34.8482,2.54575 -35.302,2.58406 -36.494,3.08195 -2.1474,0.89704 -3.0476,2.32233 -4.266,6.75434 -0.4543,1.65269 -2.2344,8.00549 -3.9558,14.11737 -1.7214,6.1118699 -3.806,13.7318699 -4.6324,16.9333299 -2.0091,7.78259 -2.614,9.6187401 -3.5305,10.7156301 -0.7355,0.88032 -0.8568,0.92601 -2.4564,0.92545 -1.3951,0 -1.9886,-0.15655 -3.4738,-0.91339 -4.138,-2.10878 -8.8309,-6.4801201 -10.4001,-9.6875301 -1.0459,-2.13767995 -1.3324,-4.35311 -0.8531,-6.59641 0.3833,-1.79409 6.6562,-25.1098799 7.4742,-27.7812499 0.5648,-1.84436 0.5198,-3.52216 -0.1226,-4.57586 -0.2923,-0.47943 -1.4074,-1.73633 -2.478,-2.7931 -3.4801,-3.43517 -4.5375,-6.339954 -2.8756,-7.898924 0.9486,-0.88982 2.8465,-1.81478 5.5614,-2.71034 4.8586,-1.60277 6.0804,-3.18635 8.4823,-10.99365 2.0344,-6.61308 11.4219,-36.3553 16.4932,-52.2552 7.8876,-24.72986 16.6593,-49.00017 24.0917,-66.65883 4.8747,-11.58179 5.3299,-12.31929 7.6044,-12.31929 2.453,0 6.8683,2.74 9.4397,5.858 3.0941,3.75182 3.3961,5.91088 1.699,12.14258 -1.3715,5.03579 -1.2712,4.72562 -5.1298,15.86609 -3.4266,9.89301 -5.166,15.25696 -18.9182,58.34062 -10.0314,31.42662 -11.3171,35.51253 -11.5218,36.61558 l -0.1665,0.89686 1.2763,-0.15116 c 2.2031,-0.26093 21.4101,-8.66402 37.7383,-16.51055 25.4986,-12.25336 44.3725,-23.4161 65.6297,-38.81596 16.7221,-12.11432 30.5215,-25.5211 40.6047,-39.44935 4.1871,-5.78379 7.726,-12.76448 9.4006,-18.54324 2.5487,-8.79481 1.757,-19.46664 -1.9904,-26.8328 -1.0105,-1.9862 -2.3245,-3.14629 -5.2653,-4.64857 -3.1528,-1.6106 -5.985,-4.31752 -7.5541,-7.22 -1.3626,-2.5205 -3.1411,-4.13062 -6.6293,-6.00168 -12.6249,-6.77193 -28.6725,-10.9828 -46.9197,-12.31172 -5.4359,-0.39587 -19.2235,-0.17545 -24.9059,0.3982 -13.0197,1.31434 -24.6662,3.66262 -36.0757,7.27389 -24.3844,7.71811 -44.8985,17.84678 -61.2909,30.26199 -2.1101,1.59811 -3.8805,2.9428 -3.9342,2.9882 -0.054,0.0454 0.1058,0.91308 0.3546,1.92818 0.2487,1.0151 0.3739,2.09253 0.2782,2.39429 -0.107,0.337 -1.3953,1.26876 -3.3399,2.41544 -3.4756,2.04959 -4.6658,2.31494 -6.6549,1.48381 -4.2296,-1.76721 -9.0117,-7.30589 -9.3788,-10.86255 -0.1973,-1.91143 0.2378,-3.10804 1.9543,-5.37496 10.1607,-13.41919 45.6901,-31.12857 77.8707,-38.81408 5.6856,-1.35787 12.7258,-2.71537 15.875,-3.06102 5.3436,-0.5865 7.9912,-1.4914 8.3114,-2.84054 0.096,-0.40651 0.2833,-4.13237 0.4153,-8.27971 0.132,-4.14734 0.3039,-7.83828 0.3819,-8.20208 0.078,-0.36381 0.4485,-2.91606 0.8231,-5.67169 0.852,-6.26705 2.4037,-14.24514 3.941,-20.26367 1.4966,-5.85862 5.2351,-17.63818 6.9678,-21.95423 1.1598,-2.88909 2.3662,-6.52354 2.7885,-8.40052 0.097,-0.43357 0.015,-0.59293 -0.3043,-0.58652 -0.9801,0.0196 -5.9282,2.21657 -26.7643,11.88344 -28.7293,13.32889 -131.1755,60.52896 -148.0344,68.20392 -11.7767,5.3613 -32.5749,14.7072 -35.3219,15.87224 -3.7316,1.58271 -5.9346,1.79306 -8.0319,0.76693 -1.8623,-0.91115 -4.2762,-3.24702 -4.9653,-4.80481 -0.6709,-1.51665 -0.5121,-2.66832 0.499,-3.6186 1.8024,-1.69405 -0.5093,-0.65085 141.7472,-63.96929 64.9121,-28.89242 83.5918,-37.22759 85.1958,-38.01573 0.8044,-0.39523 2.1069,-1.4727 3.3229,-2.74886 1.7612,-1.84822 2.1116,-2.09886 2.9343,-2.09886 1.6132,0 4.9189,-0.99592 8.3891,-2.52743 5.3263,-2.35064 13.7029,-5.6991 20.1464,-8.05339 8.7507,-3.19725 64.9019,-21.85215 72.7605,-24.17294 19.2013,-5.67052 36.4683,-9.86327 54.6364,-13.26679 11.967,-2.24181 12.612,-2.45017 15.464,-4.99494 0.8756,-0.78126 1.9215,-1.55117 2.3244,-1.71095 0.4029,-0.15976 10.9718,-3.85548 23.4866,-8.21272 43.8993,-15.28429 50.6988,-17.68986 60.7219,-21.48268 6.0152,-2.27619 6.6253,-2.45415 8.4667,-2.46976 2.4585,-0.0209 3.1071,0.30136 5.8325,2.89759 2.3067,2.19728 4.2143,3.489 7.1035,4.81002 2.8906,1.32164 114.723,52.11667 168.965,76.74503 54.32082,24.66417 82.31192,37.35319 161.79272,73.34454 32.5239,14.72779 61.2775,27.77969 63.8969,29.00418 6.6424,3.1052 8.8762,4.7204 10.2779,7.43177 1.2821,2.48026 -0.5743,3.68141 -3.9469,2.55373 -0.7172,-0.23979 -4.6972,-1.97897 -8.8446,-3.86484 -60.3613,-27.44735 -197.89222,-89.99627 -199.89272,-90.91102 -4.0624,-1.85759 -5.0134,-1.83936 -11.3771,0.21797 -25.4928,8.24166 -45.1191,13.34748 -54.1539,14.08826 -4.9856,0.40878 -10.8431,-0.007 -13.9763,-0.99171 -3.0562,-0.96067 -5.9893,-2.52142 -9.015,-4.79703 -6.3428,-4.77025 -10.5462,-10.37322 -12.6711,-16.89002 -0.9258,-2.8394 -2.0388,-4.73069 -3.7369,-6.35045 -1.6688,-1.5917 -3.3484,-2.48475 -6.0624,-3.22326 -1.4278,-0.38854 -2.8427,-0.46876 -8.3344,-0.47251 -3.8724,-0.003 -7.8211,0.14052 -9.525,0.34538 -10.9046,1.31117 -21.1718,3.29629 -34.3958,6.6503 -27.968,7.09359 -56.3784,15.37431 -80.9083,23.58213 -7.5494,2.52606 -12.592,4.07255 -13.8906,4.25995 -4.2033,0.60664 -8.449,-0.98533 -13.1941,-4.94731 -6.9982,-5.84322 -8.7194,-11.06173 -6.5451,-19.84423 0.4307,-1.73945 0.7299,-3.70056 0.7439,-4.87428 l 0.023,-1.96387 -1.3229,-0.35129 c -1.415,-0.37573 -4.1425,-0.31999 -10.7786,0.22027 -4.1101,0.33461 -6.5598,0.0799 -9.3655,-0.97362 -3.7518,-1.40888 -7.4525,-4.60176 -9.0584,-7.81555 -2.4239,-4.85063 0.1495,-6.16178 12.1369,-6.18374 10.0767,-0.0185 14.348,0.71549 19.3146,3.31891 5.8669,3.07536 11.4786,8.95459 13.7462,14.40172 0.9268,2.22626 1.4664,4.40095 1.8328,7.38635 0.2756,2.24472 0.63,2.78823 1.8184,2.78823 0.3452,0 8.7461,-2.78387 18.6687,-6.18636 35.7532,-12.25989 50.0477,-16.60294 69.3703,-21.07657 16.3743,-3.79103 27.194,-5.44645 37.449,-5.72974 6.0237,-0.16639 8.3567,0.0259 12.2604,1.01018 7.9449,2.00345 19.9643,9.46822 27.8397,17.2901 2.9312,2.91131 4.9582,5.49502 6.8561,8.73926 2.083,3.56045 3.7481,4.8948 6.1081,4.8948 0.6805,0 3.3344,-0.24578 5.8975,-0.54616 5.1543,-0.60407 8.6996,-1.44716 27.6891,-6.58458 11.2344,-3.03937 12.5574,-3.46749 12.5574,-4.06365 0,-0.49054 -1.0301,-1.37674 -1.9844,-1.70715 -0.4365,-0.15115 -3.294,-1.42848 -6.35,-2.83847 -10.2773,-4.74192 -145.4964,-66.10485 -150.2833,-68.19913 -1.1642,-0.50933 -2.712,-1.2986 -3.4396,-1.75393 -3.0376,-1.90097 -4.094,-2.28311 -6.2177,-2.24919 -1.7687,0.0282 -2.7031,0.28212 -8.599,2.33651 -3.638,1.26767 -17.6278,6.09444 -31.0885,10.72615 -51.3512,17.66959 -50.223,17.26443 -50.3935,18.09687 -0.063,0.30731 -0.2473,1.38578 -0.4096,2.39654 -0.3826,2.38297 -1.1715,4.00815 -3.4957,7.20074 -5.7086,7.84164 -10.8486,16.46158 -16.3037,27.3417 -3.4655,6.91194 -5.1659,10.61177 -10.6399,23.15104 -0.7623,1.74625 -3.346,7.28265 -5.7416,12.30312 -10.4866,21.97727 -11.9061,25.15724 -14.9171,33.41902 -3.173,8.70622 -4.8722,15.36573 -5.5051,21.57621 -0.1536,1.50699 -0.2792,2.90357 -0.2792,3.10346 0,0.72358 -2.0403,1.40941 -5.8477,1.96564 -11.072,1.61756 -19.8562,4.03651 -42.0419,11.57729 -8.2858,2.81631 -12.3711,3.75934 -14.0873,3.25179 -1.5834,-0.46832 -2.0523,-0.96626 -2.0523,-2.17946 0,-0.90617 0.1312,-1.11521 1.1505,-1.83369 1.5491,-1.09194 20.0587,-9.95032 30.3489,-14.52446 6.1194,-2.72021 8.2801,-3.46006 14.7683,-5.05709 5.8015,-1.42795 6.9035,-1.85221 8.2136,-3.1624 1.1597,-1.15965 1.4379,-1.78583 2.5259,-5.68458 1.4463,-5.18257 2.5825,-8.50389 5.8333,-17.05173 3.7255,-9.79588 5.5176,-14.10671 8.8197,-21.21527 5.2039,-11.2027 9.2915,-20.8671 14.1916,-33.55348 5.4117,-14.01077 9.302,-22.59208 13.8726,-30.60043 1.1757,-2.05989 2.1679,-3.99873 2.205,-4.30856 0.045,-0.37221 -0.1765,-0.71392 -0.6516,-1.00727 -0.6963,-0.42981 -0.9573,-0.38658 -8.2021,1.35872 -29.2492,7.04622 -37.1702,9.1667 -50.2132,13.44239 -17.0764,5.59787 -57.0369,19.90418 -86.0507,30.80708 -2.9057,1.09193 -4.0104,2.30431 -6.785,7.4467 -2.8412,5.26594 -3.5991,6.92152 -3.299,7.20711 0.3997,0.38034 3.0704,1.05429 4.1739,1.05328 2.1894,-0.003 3.3013,-1.20713 6.4998,-7.04506 1.8729,-3.41828 2.6564,-4.33104 3.7178,-4.33104 0.8517,0 2.2502,1.03523 3.4707,2.56902 1.1169,1.40364 1.4489,2.07291 1.8377,3.70473 0.2609,1.09537 0.5098,2.01752 0.5531,2.04925 0.043,0.0317 1.3565,0.92061 2.9183,1.97532 3.4095,2.30241 4.1718,3.12463 4.1718,4.50001 0,1.27103 -0.6433,1.97929 -3.1014,3.41492 -2.6254,1.53332 -3.1084,2.37437 -3.1397,5.46696 -0.013,1.30968 -0.043,2.98283 -0.067,3.71811 l -0.042,1.33686 -1.4277,-0.15717 c -1.5357,-0.16901 -1.5639,-0.18528 -4.0959,-2.36095 l -1.6871,-1.44965 -1.7211,0.89236 c -0.9466,0.4908 -3.2831,2.03885 -5.1921,3.44008 -5.4997,4.03688 -6.2578,4.50223 -7.3343,4.50223 -0.5832,0 -1.2453,-0.22439 -1.6868,-0.57163 -0.6494,-0.51083 -0.713,-0.70086 -0.5978,-1.78594 0.071,-0.66786 1.0269,-3.35743 2.1243,-5.9768 1.0974,-2.61938 2.035,-4.92591 2.0834,-5.12564 0.049,-0.20183 -0.9338,-1.1679 -2.2122,-2.17446 l -2.3003,-1.81128 -1.1715,1.77755 c -1.9205,2.91407 -3.1499,5.36144 -6.6081,13.15466 -6.042,13.61583 -8.7565,21.58836 -11.6659,34.26354 -1.5146,6.59863 -1.8302,8.81224 -1.6598,11.64167 0.083,1.38244 0.2298,2.78143 0.3257,3.10885 l 0.1743,0.59531 h 6.9144 c 12.3464,0.003 22.5548,0.90083 37.1582,3.2729 l 3.7853,0.61486 0.4928,-0.96586 c 0.271,-0.53123 0.6241,-1.85266 0.7846,-2.93653 0.1606,-1.08387 0.3614,-2.29121 0.4462,-2.68295 0.1334,-0.61611 -0.099,-0.96706 -1.7207,-2.5985 -1.9892,-2.00102 -2.7831,-3.57884 -2.2407,-4.45291 0.1498,-0.24133 1.8752,-0.98047 3.8384,-1.64434 1.9615,-0.66325 3.9929,-1.46952 4.5141,-1.7917 1.5899,-0.98258 2.8643,-2.64536 4.1776,-5.45079 2.0874,-4.45889 2.9384,-5.05619 5.4629,-3.83408 1.6273,0.78775 2.3283,1.7485 4.4045,6.0365 l 1.8438,3.80815 -0.6812,1.38901 c -1.3882,2.8304 -1.4953,5.69968 -0.4095,10.97073 0.7796,3.78452 0.8395,4.37116 0.5088,4.98893 -0.2305,0.43066 -0.5513,0.56732 -1.332,0.56732 -1.2357,0 -2.8488,-1.1249 -4.1845,-2.91806 -1.8356,-2.4642 -3.0821,-3.77013 -3.9412,-4.12906 -0.7819,-0.32671 -0.9889,-0.31925 -1.7266,0.0623 -1.1101,0.57404 -3.1448,2.68674 -4.4772,4.64883 -0.5913,0.87069 -1.0346,1.61878 -0.9852,1.66243 0.4484,0.39616 2.9144,1.35832 6.4398,2.51265 10.7252,3.5117 20.2669,8.02325 28.1394,13.30499 3.7365,2.50682 4.0794,2.63599 5.4377,2.04769 0.5958,-0.25807 2.9884,-1.30151 5.3167,-2.31875 13.9946,-6.11418 29.8534,-10.60239 44.2305,-12.51771 4.7469,-0.63238 11.3718,-0.763 14.1494,-0.279 6.7869,1.18274 12.8018,4.30498 17.7601,9.21906 6.4077,6.35061 8.1528,13.16956 6.0471,23.62967 -0.4541,2.25558 -0.8261,4.77176 -0.8267,5.59155 0,1.68524 0.1595,1.80753 2.3802,1.81189 1.2339,0.003 15.7941,-2.39321 21.8281,-3.59148 7.5617,-1.50159 27.5493,-6.31685 49.874,-12.01526 8.513,-2.17291 17.2641,-4.36263 19.4469,-4.866 11.9795,-2.76257 37.6166,-7.40476 49.0802,-8.88712 5.2279,-0.67603 18.9497,-1.16641 21.0344,-0.75176 2.063,0.4104 5.876,2.39446 8.2054,4.26956 2.3089,1.85872 4.5531,4.49895 6.2457,7.34793 0.9042,1.52204 1.2396,1.86438 2.0464,2.08846 1.2273,0.34089 2.2499,0.34041 4.0377,-0.003 3.2661,-0.62537 20.7725,-3.50454 28.0158,-4.60761 22.688,-3.45512 49.8442,-6.42284 73.951,-8.08165 4.3657,-0.30038 11.3308,-0.86008 15.4782,-1.24373 9.4611,-0.87518 17.4873,-0.98644 20.1083,-0.27873 4.9881,1.34686 10.9292,5.71632 12.703,9.34259 0.7305,1.49352 0.7004,3.48224 -0.07,4.62555 -1.2644,1.87614 -1.9429,2.01216 -14.4851,2.90383 -40.6412,2.88928 -64.7671,5.26217 -88.9,8.74374 -7.783,1.12284 -9.0744,1.45404 -10.4794,2.68761 -2.4786,2.17622 -19.1413,34.27645 -20.6385,39.75939 -0.5997,2.19614 -0.5738,2.24895 1.0995,2.24895 0.8068,0 8.8138,-1.18467 17.7932,-2.63263 24.1001,-3.88617 24.5837,-3.95922 28.1114,-4.24743 7.3265,-0.5986 14.1536,0.98935 18.0318,4.19412 2.5983,2.14712 4.4277,4.81039 4.4408,6.46475 0.019,2.45816 -2.3359,4.84582 -5.7681,5.84732 -0.7746,0.22603 -7.9779,1.42639 -16.0073,2.66753 -8.0294,1.2411 -23.9668,3.73118 -35.4163,5.53349 -22.8287,3.59355 -21.91,3.3759 -22.9628,5.43968 -0.5419,1.06219 -17.5921,43.64976 -23.6814,59.15088 -8.6725,22.07707 -11.1829,28.87112 -18.6723,50.535414 -4.6202,13.36448 -5.6962,16.9607199 -5.2395,17.5109999 0.5219,0.62883 1.9025,0.67217 3.5419,0.1112 2.5243,-0.86373 30.0027,-8.6207299 34.6502,-9.7815399 5.1746,-1.29246 10.8928,-2.41964 17.1979,-3.3901 4.2943,-0.66098 5.4388,-0.73277 11.6416,-0.7303 6.4896,0.003 7.0718,0.0438 10.279,0.72778 6.074,1.29538 9.6097,3.01604 12.8791,6.26759 2.1503,2.1386 2.9034,3.3912699 2.9034,4.8294899 0,1.21674 -0.9538,2.58881 -2.2525,3.2403 -0.9718,0.48752 -1.4978,0.52337 -6.6829,0.45556 -13.9239,-0.18214 -24.7111,1.54858 -43.3198,6.95031 -5.5153,1.60097 -8.6346,2.54468 -27.5167,8.3248801 -14.9077,4.56356 -18.7409,5.32646 -22.0927,4.39697 z m -167.8591,-64.887824 c 3.7009,-1.25558 8.6244,-5.31749 13.7353,-11.33157 6.3032,-7.41696 12.2392,-16.16382 15.8409,-23.34183 1.2369,-2.46505 3.6304,-8.64159 4.1448,-10.69573 0.3101,-1.23796 0.042,-3.5406 -0.5161,-4.43336 -0.5865,-0.93816 -4.7021,2.55556 -9.7874,8.30842 -9.1895,10.39579 -16.2632,21.20879 -22.3034,34.09325 -2.6543,5.66198 -2.9075,6.34296 -2.686,7.22546 0.085,0.33977 0.1805,0.61774 0.2115,0.61774 0.031,0 0.6432,-0.19907 1.3604,-0.44238 z m -47.3543,-27.56688 c 7.5549,-4.94078 16.44,-16.71839 21.4276,-28.4031 l 0.936,-2.19284 -1.2268,1.19062 c -1.8624,1.80756 -7.1985,7.71271 -9.922,10.98021 -6.0191,7.22141 -13.2243,17.41027 -13.2243,18.70057 0,0.41047 0.1006,0.74631 0.2236,0.74631 0.1229,0 0.9266,-0.4598 1.7859,-1.02177 z m 398.6537,61.906204 c -2.0211,-0.74787 -4.2114,-2.27584 -6.3018,-4.396 -5.0518,-5.12395 -6.2559,-10.93822 -4.7335,-22.85614 1.0035,-7.855214 4.2955,-20.260704 9.4835,-35.737614 1.2418,-3.70451 2.3335,-7.30615 2.426,-8.00365 0.3247,-2.44784 -0.098,-2.15534 -13.6801,9.47079 -6.9002,5.90643 -12.8199,11.00519 -13.1548,11.3306 l -0.609,0.59166 1.7114,2.82231 c 2.1776,3.59116 2.635,4.94395 2.5053,7.411 -0.1307,2.48764 -0.8727,3.98248 -3.1849,6.41668 -2.4762,2.60675 -4.9882,4.271094 -10.3435,6.853024 -7.5789,3.65403 -16.076,6.83692 -26.5479,9.94447 -5.0811,1.50784 -5.6152,1.61505 -7.6092,1.52726 -2.5452,-0.11208 -3.9884,-0.72118 -5.6884,-2.40086 -1.2841,-1.26873 -2.4092,-3.28014 -2.4092,-4.3071 0,-1.35792 0.7176,-2.14669 3.4962,-3.84291 4.9006,-2.99157 9.0274,-6.084334 17.8608,-13.385194 6.7784,-5.60245 14.7389,-11.70977 15.7453,-12.07992 0.6687,-0.24593 -2.0903,-2.63197 -7.3367,-6.345 -5.9169,-4.18759 -9.2804,-7.29319 -11.3585,-10.48756 -5.6872,-8.74188 -4.2561,-15.20806 5.9551,-26.90614 4.6805,-5.36204 11.2134,-10.46831 17.3231,-13.54021 5.0717,-2.55002 9.43,-2.76587 13.7894,-0.68291 2.1128,1.00952 5.232,4.16859 6.3936,6.47536 1.3939,2.76804 1.4004,4.12006 0.04,8.30299 -1.3855,4.2604 -2.8556,7.98642 -4.2052,10.65747 -2.8165,5.57438 -4.737,6.49298 -8.277,3.95896 -2.2208,-1.58969 -5.1709,-4.32072 -5.6334,-5.21507 -0.5821,-1.12567 -0.7151,-3.15619 -0.3245,-4.95308 0.447,-2.0565 0.4583,-2.0616 -3.3055,1.49522 -3.5925,3.39492 -6.3732,6.70509 -8.9894,10.70112 -2.2154,3.38384 -3.021,5.17742 -3.4666,7.71721 -0.2564,1.46145 -0.2273,1.72072 0.3198,2.85091 0.5188,1.07164 1.0212,1.51903 3.6401,3.24107 5.5914,3.67657 10.7684,6.72015 11.4308,6.72015 1.2803,0 2.9951,-1.15808 9.8317,-6.63988 19.3721,-15.53297 33.6806,-28.58685 36.3868,-33.19637 0.5928,-1.00959 1.7696,-3.5025 2.6152,-5.53979 0.8456,-2.03729 2.6698,-6.32354 4.0537,-9.525 3.73682,-8.64449 5.64052,-13.44305 5.41702,-13.65443 -0.1094,-0.10348 -0.8439,-0.37706 -1.6323,-0.60793 -1.51142,-0.44265 -5.42532,-0.37222 -21.45312,0.38608 -6.938,0.32824 -8.7133,0.14673 -11.5276,-1.17859 -3.5892,-1.69029 -8.0516,-6.82397 -8.0516,-9.26285 0,-1.16358 0.5842,-1.97816 1.7046,-2.37702 0.5136,-0.1828 18.4999,-0.76925 36.0158,-1.1743 12.27732,-0.28389 11.44802,0.11777 15.38752,-7.45283 1.1737,-2.25558 3.4082,-6.36323 4.9656,-9.12813 6.2266,-11.05429 8.7735,-13.71586 12.2803,-12.83306 3.3056,0.83223 7.8129,4.327 10.0919,7.82484 0.8776,1.34716 1.1633,2.06071 1.2462,3.11338 0.1307,1.65873 -0.031,1.98858 -4.8945,9.96463 -1.9076,3.1287 -3.5473,6.00634 -3.6437,6.39477 -0.1396,0.56229 -0.047,0.79013 0.4529,1.11784 0.5666,0.37129 1.5343,0.37372 9.879,0.0249 5.088,-0.21267 24.1932,-0.68181 42.4561,-1.04251 38.3467,-0.7574 39.4336,-0.79254 40.4179,-1.30667 1.2347,-0.64495 2.0204,-1.73869 4.2666,-5.93969 3.4778,-6.50433 5.3717,-9.47607 8.5926,-13.48226 3.0277,-3.76598 5.4608,-4.16333 9.3483,-1.52668 1.5662,1.0622 4.309,3.87581 4.8976,5.02386 1.0892,2.12455 0.3378,4.73541 -2.7475,9.5458 -1.2576,1.96085 -2.0693,3.77512 -2.0693,4.62531 0,0.38592 0.3124,0.60272 1.2568,0.87233 1.0506,0.2999 3.1237,0.30528 12.6339,0.0327 28.8333,-0.82643 37.0574,-0.96896 38.4668,-0.6667 3.5345,0.75801 7.4495,3.88546 9.0202,7.20572 1.2697,2.68396 1.0488,3.33063 -1.3957,4.08511 -1.1064,0.3415 -3.5072,0.47064 -12.2247,0.65757 -15.1037,0.32388 -42.1272,1.04473 -48.1541,1.2845 -5.6232,0.22373 -6.6004,0.49977 -7.9272,2.23927 -0.84,1.10138 -10.0435,22.52991 -17.6866,41.17983 -11.8436,28.89935 -21.1411,51.77935 -21.6283,53.22403 -0.2778,0.82391 -0.5836,2.1663 -0.6797,2.98312 l -0.1745,1.48511 1.2763,-0.54711 c 2.3689,-1.01544 4.5666,-2.88784 11.5666,-9.85464 7.4179,-7.38267 20.3406,-21.15222 22.15,-23.60152 0.5976,-0.80896 2.2739,-3.67665 3.7251,-6.37265 4.2563,-7.90707 8.152,-13.96394 12.5841,-19.5653 7.5862,-9.58731 17.0065,-18.45503 21.1358,-19.89587 3.1545,-1.10069 6.1744,-0.3416 9.8579,2.47798 5.0568,3.8707 6.9416,7.95907 5.7738,12.52355 -1.161,4.53766 -5.0606,12.77559 -8.3913,17.72663 -4.7084,6.99892 -10.8484,12.59613 -16.0212,14.60471 -2.096,0.81391 -5.7317,1.64881 -8.5067,1.95353 -1.9334,0.21232 -2.4634,0.64233 -3.7106,3.0105 -0.9831,1.8665 -3.637,9.04663 -4.2954,11.62087 -0.2866,1.12059 -0.5033,2.86988 -0.5033,4.06265 0,1.96242 0.049,2.14352 0.7734,2.86808 0.4454,0.44543 1.056,0.77341 1.4398,0.77341 0.3666,0 2.0723,-0.42479 3.7907,-0.94396 8.9724,-2.71092 16.4253,-7.88405 30.9097,-21.4546 1.8941,-1.77462 5.1652,-5.1107 7.269,-7.4135 5.235,-5.72987 6.6292,-7.05725 8.6846,-8.26815 2.0705,-1.21986 4.6575,-2.13645 6.0296,-2.13645 2.4423,0 4.7901,1.57464 5.4043,3.62444 0.2681,0.89475 0.211,1.27231 -0.5039,3.33555 -1.6762,4.8377 -2.0679,5.40399 -7.6966,11.12862 -7.395,7.52083 -22.8954,21.49609 -28.3799,25.5874 -4.339,3.23675 -10.5052,6.533384 -13.84,7.399334 -2.6604,0.6908 -6.6948,0.74658 -9.1273,0.12616 -3.9917,-1.01809 -8.5319,-3.892454 -12.1277,-7.677894 -2.3401,-2.46346 -3.8157,-4.70152 -5.5679,-8.44431 l -1.3306,-2.84232 -1.0863,0.61058 c -0.6749,0.37931 -4.1833,3.96981 -9.2631,9.47994 -9.9611,10.804854 -13.2604,13.773954 -17.9516,16.155144 -1.9684,0.99912 -4.5741,1.32623 -6.2706,0.78719 -1.7324,-0.55044 -4.7477,-2.57773 -6.2105,-4.17557 -2.5745,-2.81205 -3.294,-5.33154 -3.0775,-10.776564 0.1655,-4.16242 0.7213,-6.82218 3.0132,-14.41979 1.6392,-5.43417 4.337,-14.09348 4.7397,-15.21354 0.3706,-1.03084 -1.4643,0.97634 -5.5642,6.08639 -8.2886,10.331 -15.7115,17.95505 -19.8327,20.37025 -2.6028,1.52532 -5.3279,1.05852 -8.7176,-1.49331 -3.41,-2.56707 -5.0336,-5.2905 -6.1415,-10.30208 -0.3672,-1.66077 -0.7214,-3.17606 -0.7872,-3.36733 -0.1393,-0.40481 -1.345,0.86366 -6.7436,7.09462 -9.6364,11.12213 -11.92,13.44141 -15.6379,15.88275 -3.1784,2.087064 -4.8832,2.719574 -7.3958,2.743974 -1.7984,0.0175 -2.2086,-0.0811 -3.9792,-0.95618 -1.0857,-0.5366 -2.8623,-1.730484 -3.948,-2.653064 -2.0774,-1.76535 -3.1694,-2.58207 -3.4524,-2.58207 -0.2794,0 -2.9981,3.40585 -8.976,11.244804 -8.11422,10.64016 -10.42942,13.42591 -14.13602,17.00881 -3.9446,3.81283 -5.796,4.89308 -8.5971,5.01608 -1.2165,0.0534 -2.1485,-0.0758 -3.1086,-0.43109 z m 3.8738,-13.47325 c 4.7272,-3.85868 8.7281,-8.43682 21.44752,-24.542084 6.7195,-8.50808 7.5628,-9.77847 8.8256,-13.29513 5.113,-14.23805 14.1017,-28.53563 24.4969,-38.96508 5.7899,-5.80901 9.0981,-8.32011 15.0071,-11.39108 l 3.0821,-1.60184 2.1428,0.0915 c 2.1262,0.0908 2.1714,0.10771 5.843,2.18771 11.7692,6.66731 13.6751,8.02391 16.0128,11.39753 0.8325,1.2015 0.9166,1.49289 0.9166,3.175 0,1.82732 -0.04,1.93173 -2.9559,7.80521 -4.1634,8.3847 -6.4073,14.14949 -9.0878,23.34739 -1.1779,4.0417 -1.8803,7.60886 -1.4983,7.60886 0.084,0 0.8454,-0.40627 1.6927,-0.90284 1.0686,-0.62632 3.4837,-2.87702 7.8855,-7.34898 11.8755,-12.06466 17.1704,-19.36287 30.9162,-42.61303 l 3.8708,-6.54711 4.3785,-10.94581 c 2.9748,-7.43651 4.3958,-11.31531 4.4322,-12.09823 0.085,-1.83203 -0.4181,-1.9208 -9.7359,-1.71659 -37.568,0.8233 -82.2379,2.30864 -84.0053,2.79328 -1.45,0.39762 -2.8454,1.74014 -3.8152,3.67059 -1.5301,3.04588 -8.8337,19.21727 -11.6679,25.83476 -12.09452,28.23882 -21.48292,51.19841 -24.45112,59.79584 -3.1593,9.151094 -6.3678,21.457364 -6.3678,24.424034 v 1.35974 l 0.7191,-0.27339 c 0.3955,-0.15039 1.2576,-0.713 1.9158,-1.25024 z m 46.95912,-29.078394 c 7.4571,-5.59665 18.6217,-19.02685 27.1084,-32.60947 3.0691,-4.91207 3.5705,-6.06835 3.39,-7.81767 -0.079,-0.76671 -0.3364,-1.76636 -0.5718,-2.22144 l -0.4278,-0.82738 -1.5126,1.0297 c -2.1107,1.43698 -6.9768,6.1336 -10.4396,10.07613 -5.3733,6.11785 -10.3912,13.24544 -14.8184,21.04879 -2.8021,4.93895 -6.0202,11.34401 -6.0202,11.98211 0,0.45328 0.4633,1.11477 0.7806,1.11477 0.08,0 1.2103,-0.79899 2.5114,-1.77554 z m 128.5652,-27.81453 c 5.9386,-4.2626 11.3086,-10.72896 14.7696,-17.78508 1.5198,-3.09838 2.9438,-6.75365 2.7997,-7.18609 -0.1678,-0.50358 -2.6458,1.75501 -4.6407,4.23 -2.4619,3.05419 -12.6935,16.13588 -15.2191,19.45841 -1.2853,1.69088 -1.7729,2.55313 -1.7729,3.135 v 0.80261 l 0.9922,-0.58129 c 0.5457,-0.31972 1.9277,-1.25283 3.0712,-2.07356 z m 111.4272,68.799234 c -3.4056,-1.18692 -9.1465,-6.28994 -10.9215,-9.70812 -0.5513,-1.06162 -0.6857,-1.68873 -0.6804,-3.175 0.01,-1.61737 0.1838,-2.28799 1.4051,-5.29167 0.7692,-1.89177 3.0976,-8.49974 5.1742,-14.684374 2.0767,-6.18464 7.5829,-22.43667 12.236,-36.11562 13.7802,-40.51022 17.7226,-52.54332 26.7858,-81.75625 8.7935,-28.34389 7.8327,-25.4513 8.8102,-26.52448 0.8978,-0.9857 2.7076,-0.82457 5.1721,0.46046 3.8431,2.00387 6.4012,4.53988 8.2506,8.17938 1.4952,2.94232 1.4263,3.30157 -4.3421,22.64714 -5.7622,19.32461 -9.4651,30.60528 -17.6307,53.71041 -3.24,9.16781 -9.256,26.78906 -13.3689,39.15833 -6.7217,20.21507 -8.6261,26.375364 -8.2654,26.736074 0.1497,0.14975 4.6394,-1.681064 13.3042,-5.425284 13.6344,-5.89169 17.6867,-7.39635 22.9183,-8.50985 2.3066,-0.49093 3.6357,-0.58817 8.3025,-0.6073 6.7278,-0.0276 6.7341,-0.0301 8.0766,-3.25506 0.4672,-1.12223 5.0116,-13.77233 10.0987,-28.11137 34.5997,-97.5261 34.4134,-97.00881 36.2355,-100.62532 1.3206,-2.62104 2.7353,-2.8748 6.2264,-1.11681 2.4904,1.25408 4.8405,3.26451 6.6986,5.73048 1.856,2.46303 2.229,3.61778 2.0378,6.30841 -0.2944,4.14284 0.2623,2.428 -34.6552,106.75937 -4.8703,14.55208 -8.9381,26.95299 -9.0396,27.55762 -0.1783,1.062734 -0.158,1.105094 0.6115,1.274104 0.6002,0.13184 1.4674,-0.0968 3.5248,-0.929434 8.0834,-3.27131 21.1295,-7.80237 35,-12.15591 10.7642,-3.37859 11.1823,-3.46366 18.1318,-3.68839 5.2932,-0.17116 6.0949,-0.25623 7.2318,-0.76743 0.7033,-0.31623 1.5713,-0.57494 1.9288,-0.57494 0.9372,0 2.59,0.91361 3.1222,1.72593 0.8912,1.36009 0.8068,2.19062 -0.4922,4.84193 -2.2999,4.69424 -3.5716,5.90251 -7.4191,7.0489 -12.2361,3.64582 -15.4347,4.621904 -19.688,6.007974 -16.5953,5.40813 -23.0925,8.40332 -44.6116,20.5658 -6.9206,3.91149 -9.1134,4.42065 -12.232,2.8403 -3.4707,-1.75869 -9.8013,-8.01995 -11.1793,-11.05678 -0.7463,-1.64468 -0.6885,-4.18335 0.1818,-7.9869 l 0.7169,-3.13264 -0.65,-0.4995 c -0.3575,-0.27472 -0.919,-0.50213 -1.2479,-0.50539 -1.0794,-0.0106 -14.0498,5.29405 -22.2885,9.11564 -6.7206,3.1174 -17.4037,8.9 -24.8529,13.45242 -4.3029,2.62964 -5.9242,3.0216 -8.6169,2.08315 z m -75.1792,-7.44697 c -1.1322,-0.27 -2.5962,-1.20763 -3.1101,-1.99191 -0.5805,-0.88599 -0.5325,-2.41284 0.1085,-3.44993 0.2929,-0.47405 2.7635,-2.945 5.4901,-5.491 9.7649,-9.118184 15.6576,-15.532954 19.8103,-21.565564 3.1574,-4.58671 3.4482,-4.74598 6.5007,-3.56065 2.5917,1.00631 4.8305,2.52349 5.9212,4.01248 1.7282,2.35929 2.2195,5.24066 1.1018,6.46116 -0.9488,1.036 -31.3952,24.088274 -33.0282,25.007014 -0.8121,0.45693 -1.586,0.81859 -1.7198,0.8037 -0.1338,-0.0148 -0.6173,-0.11629 -1.0745,-0.2253 z m -936.29382,-0.65309 c -2.5701,-0.95031 -7.1926,-5.07 -8.8541,-7.89107 -2.3264,-3.94978 -3.0857,-7.33597 -2.8628,-12.766994 0.2505,-6.10354 1.5639,-12.387 4.8113,-23.01875 6.5725,-21.51724 16.121,-46.30417 25.7359,-66.80729 4.2773,-9.12111 4.616,-9.96984 4.0728,-10.20405 -1.7047,-0.73488 -40.3686,-0.10859 -90.9301,1.47291 -13.3676,0.41812 -20.5349,0.75274 -31.2208,1.45754 -5.3843,0.35512 -17.7072,1.06563 -27.3844,1.57887 -25.1381,1.33326 -24.9265,1.30794 -26.8285,3.20847 -0.8912,0.89045 -0.4085,-0.13483 -10.1391,21.53626 -18.1607,40.44603 -21.0551,47.20735 -24.3851,56.96204 -1.316,3.8549 -1.536,4.734 -1.2156,4.85695 0.2152,0.0826 0.5561,0.0868 0.7577,0.01 0.312,-0.11975 11.2579,-14.98835 26.2335,-35.63477 4.5474,-6.26941 7.8364,-11.40912 8.5902,-13.42374 0.3327,-0.88911 0.5845,-2.40546 0.6832,-4.11263 0.179,-3.09928 0.6604,-5.12321 1.6068,-6.75574 1.3207,-2.27809 3.2787,-2.72293 6.1033,-1.38665 3.7764,1.78657 6.6197,4.3508 8.4707,7.63939 0.9549,1.69669 0.9937,1.86288 0.9676,4.14875 -0.018,1.57273 -0.2326,3.14483 -0.6322,4.6302 -1.2868,4.78354 -0.7402,7.32978 2.2792,10.61855 3.6739,4.00153 4.6614,5.96019 4.6514,9.2252 -0.01,1.69405 -0.2782,2.87475 -1.8661,8.06979 -1.0231,3.34698 -2.1053,6.78866 -2.405,7.64821 -0.2997,0.85952 -0.5449,1.66994 -0.5449,1.80091 0,0.70361 3.1049,-1.96683 12.987,-11.16973 20.994,-19.55106 21.9743,-20.52682 24.0041,-23.8924 0.4815,-0.79841 1.277,-2.38681 1.7677,-3.52973 1.2397,-2.88782 1.8646,-3.5333 3.4206,-3.5333 3.0026,0 8.7901,4.36536 10.66,8.04056 0.4843,0.95194 0.6945,1.79395 0.7104,2.84485 0.026,1.72101 -0.1652,2.13138 -4.7261,10.14897 -5.4719,9.61895 -16.131,31.12701 -16.9152,34.13125 -0.3831,1.46793 -0.3809,1.61242 0.029,1.91823 0.7381,0.55096 1.0874,0.40415 3.6864,-1.5493 8.4968,-6.38635 30.8066,-28.63289 35.2616,-35.16164 0.8441,-1.23693 2.7589,-4.27302 4.2552,-6.74687 3.5683,-5.89971 4.9266,-7.88959 7.4764,-10.95259 4.5199,-5.42978 5.5579,-6.26573 9.0294,-7.27215 3.9187,-1.13607 7.5211,-1.57504 11.5413,-1.40632 8.4683,0.35537 15.2318,3.71417 21.3775,10.61617 4.7475,5.33175 4.8245,10.22736 0.3091,19.66825 -6.4841,13.55725 -16.2023,24.79241 -26.5814,30.73051 -3.6199,2.071 -5.9731,2.75026 -9.525,2.7495 -2.4695,0 -3.2311,-0.10952 -5.0271,-0.71943 -2.7325,-0.92792 -4.7949,-2.0896 -7.7057,-4.34031 -2.7661,-2.13881 -4.7013,-4.17367 -7.4827,-7.86796 l -2.0317,-2.69865 -0.915,0.47496 c -0.5032,0.26125 -4.0701,3.84296 -7.9264,7.95938 -3.8563,4.11641 -8.6783,9.16553 -10.7156,11.220264 -5.6459,5.69426 -10.5985,9.13418 -13.7105,9.52302 -5.7777,0.72186 -13.5291,-5.92418 -15.2815,-13.102364 -0.4845,-1.98479 -0.4228,-6.24832 0.1321,-9.12749 0.3502,-1.81713 3.2935,-11.41724 4.3342,-14.13692 0.3611,-0.94382 -4.4758,3.26398 -8.6865,7.55671 -5.5064,5.61359 -8.7103,9.11865 -14.9092,16.31069 -5.3727,6.233504 -7.0727,7.951284 -8.4248,8.513214 -1.4709,0.61129 -2.3223,0.50622 -4.426,-0.54618 -2.611,-1.30622 -5.0627,-3.64549 -6.1628,-5.87994 -0.8291,-1.684244 -0.8629,-1.877514 -0.8629,-4.933484 0,-2.73082 0.1218,-3.65175 0.8615,-6.51287 0.9227,-3.56942 4.2877,-14.11714 7.5819,-23.76586 2.445,-7.16153 2.6373,-8.39824 1.6267,-10.46366 -1.193,-2.43843 -2.7622,-3.2684 -4.1403,-2.1899 -1.359,1.06352 -20.2074,28.6509 -27.8966,40.83073 -4.9121,7.780744 -10.5931,15.988644 -13.3073,19.226374 -3.1534,3.76153 -4.9139,4.96234 -7.2751,4.96234 -2.1319,0 -4.6484,-1.35554 -7.4635,-4.02031 -2.7683,-2.62036 -4.1979,-5.22187 -4.6315,-8.42772 -0.363,-2.68328 -0.1271,-4.16063 2.2725,-14.234934 2.7112,-11.38211 2.9111,-12.7104 1.6778,-11.14851 -0.2856,0.36163 -2.6269,3.63408 -5.203,7.2721 -9.1697,12.949504 -11.1038,14.852754 -14.8765,14.639584 -2.2982,-0.12986 -4.1229,-1.18332 -7.0314,-4.059534 -2.5752,-2.54664 -4.1254,-5.38091 -4.75,-8.6851 -0.4953,-2.6197 -0.4919,-3.80199 0.023,-7.72354 0.228,-1.73841 0.3416,-3.54917 0.2526,-4.02391 -0.3183,-1.6963 -0.993,-1.23719 -6.2169,4.2301 -17.1336,17.93182 -20.7828,21.468774 -24.988,24.219644 -5.7454,3.75849 -10.3407,2.64417 -17.1054,-4.14797 -3.1284,-3.141144 -4.7112,-5.529454 -5.6743,-8.562484 -1.2897,-4.06109 -1.1488,-6.87879 0.6599,-13.19874 1.4178,-4.95405 2.6303,-8.13453 4.8891,-12.82472 5.8112,-12.06611 14.7045,-24.82154 22.6724,-32.51835 4.8335,-4.6691 10.0197,-8.06714 14.7773,-9.6824 2.2719,-0.77131 2.8188,-0.8541 5.6885,-0.86106 3.804,-0.009 6.1755,0.56446 9.7281,2.35337 2.845,1.43261 4.6085,2.65443 7.8667,5.4502 3.2526,2.7909 6.5643,4.94078 9.4595,6.14093 3.2824,1.36059 5.6561,3.46612 8.0186,7.11268 1.862,2.87404 1.6968,4.04416 -1.2691,8.99107 -3.9912,6.65697 -7.1479,13.07315 -11.5582,23.49294 -2.1074,4.97887 -2.7472,6.87916 -2.3163,6.87916 0.1125,0 1.9938,-2.17289 4.1807,-4.82864 18.4393,-22.39251 29.7271,-39.76542 38.121,-58.67135 1.6395,-3.69287 4.8781,-12.05992 5.247,-13.55593 0.2865,-1.16199 -0.6501,-1.36676 -4.6394,-1.0142 -9.1626,0.80971 -15.265,0.98997 -17.5157,0.51737 -3.3548,-0.70446 -7.4759,-3.20723 -10.2299,-6.21276 -4.065,-4.43627 -4.3226,-8.67643 -0.558,-9.18541 0.6511,-0.088 6.6011,-0.23238 13.2223,-0.32078 15.9288,-0.21267 25.9641,-0.77634 27.434,-1.54091 1.1896,-0.61878 1.7499,-1.40896 3.6873,-5.19988 2.5447,-4.97919 12.032,-20.77537 13.5711,-22.59565 2.9735,-3.51674 5.6702,-4.36563 8.8205,-2.77665 2.3972,1.20923 6.3479,4.93057 7.8354,7.38064 0.8715,1.43533 0.7763,3.3497 -0.2314,4.65666 -0.4376,0.56753 -1.6248,2.10344 -2.6381,3.41313 -1.8866,2.43829 -6.3852,9.89885 -7.216,11.96721 l -0.4632,1.15329 0.6747,0.67476 0.6748,0.67477 4.2864,-0.17719 c 2.3575,-0.0974 6.37,-0.28694 8.9166,-0.42111 29.6456,-1.56194 99.3581,-3.14415 139.0386,-3.15566 l 19.3145,-0.006 1.3539,-0.63042 c 0.7447,-0.34671 1.6496,-1.03016 2.0111,-1.51876 0.611,-0.8259 9.5181,-16.89272 12.1393,-21.89708 1.9341,-3.69268 3.1646,-4.47111 5.7238,-3.62108 4.3091,1.43126 9.4023,5.96267 11.59,10.31171 1.5829,3.14666 1.3755,4.33228 -2.2822,13.04245 -0.9747,2.321 -1.0813,2.75296 -0.7714,3.12629 0.9896,1.19245 1.2618,1.21761 13.3087,1.23057 8.8736,0.01 11.8091,0.0965 13.1208,0.38836 2.6476,0.58915 5.1743,2.0601 7.4384,4.33022 4.6727,4.68511 5.5186,7.97584 2.2489,8.74816 -0.9689,0.22886 -10.1858,0.0282 -35.3219,-0.76896 -7.5913,-0.24074 -8.4803,-0.11295 -10.0975,1.45169 -2.5745,2.49081 -14.4449,24.51267 -20.8046,38.59638 -4.8004,10.63072 -11.3553,26.65391 -15.8365,38.71172 -3.4113,9.17911 -8.7662,25.257814 -8.9813,26.967204 -0.1625,1.29115 -0.1316,1.40111 0.4546,1.61986 0.7644,0.2853 1.5224,0.0243 2.8256,-0.97298 0.5381,-0.41171 2.5856,-1.94132 4.5501,-3.39918 7.3675,-5.467274 13.1016,-10.590984 22.5008,-20.105524 6.8993,-6.98405 11.8102,-12.33917 17.1867,-18.74142 6.3515,-7.56322 6.9005,-8.13049 8.823,-9.11498 2.8681,-1.46883 4.822,-1.19912 6.3742,0.8799 0.4011,0.53721 0.5455,1.12829 0.5455,2.23261 0,2.28536 -1.0601,4.13753 -3.9542,6.90869 -7.2802,6.97093 -9.5651,9.28299 -15.8368,16.02452 -9.6627,10.38675 -26.3024,27.506904 -30.0308,30.897884 -4.3335,3.94129 -9.1556,7.7479 -10.8899,8.59637 -1.7472,0.85486 -4.3489,1.0646 -5.9342,0.47839 z m -272.6277,-26.926894 c 4.3155,-2.8903 13.8378,-11.42412 23.2463,-20.83313 9.9383,-9.93891 18.359,-19.37464 20.4216,-22.88344 l 0.921,-1.56662 -1.3461,-3.06359 c -0.7404,-1.68494 -1.4685,-3.15103 -1.6181,-3.25794 -0.1495,-0.10692 -1.1889,-0.19622 -2.3097,-0.19844 -1.9269,-0.004 -2.1791,0.068 -4.6302,1.31858 -7.0856,3.61502 -14.0818,10.77124 -23.0214,23.5482 -7.036,10.05615 -14.7255,24.26068 -15.0994,27.89246 l -0.1341,1.30182 1.0302,-0.62335 c 0.5666,-0.34285 1.7096,-1.07839 2.5399,-1.63455 z m 226.0351,-8.15218 c 5.4866,-2.17956 10.5717,-5.68264 15.744,-10.84612 8.5352,-8.52056 15.6204,-22.12437 13.7085,-26.32066 -0.1705,-0.37423 -0.6765,-0.90496 -1.1245,-1.17938 -1.0139,-0.62119 -6.6985,-1.60573 -9.2481,-1.60177 l -1.8851,0.003 -3.3531,5.22256 c -4.2145,6.56426 -5.0822,8.04246 -8.781,14.95838 -5.2922,9.8951 -9.4295,18.07929 -9.4295,18.65318 0,0.30691 0.1382,0.86127 0.3071,1.2319 0.4198,0.9213 1.5202,0.88852 4.0617,-0.12105 z M -549.78718,-44.666 c -6.0742,-0.7873 -11.5041,-2.83655 -16.6632,-6.28875 -14.0501,-9.40157 -21.8091,-24.11984 -20.9186,-39.68091 0.5969,-10.42937 3.7819,-20.69512 11.3224,-36.494 7.4877,-15.68823 18.1297,-33.46209 27.3489,-45.67709 7.0552,-9.34786 15.8556,-17.38272 22.9404,-20.94489 5.4981,-2.76439 9.5561,-3.81902 13.7947,-3.58507 4.1837,0.23092 6.3706,1.15662 10.4115,4.40697 5.0889,4.09337 7.6827,8.28035 8.5358,13.77863 0.3833,2.47018 0.1795,4.8337 -0.8396,9.73693 -1.9071,9.17546 -5.3501,17.9528 -9.8263,25.05014 -1.7591,2.78924 -8.0091,11.46958 -10.4212,14.47353 -2.8138,3.50427 -4.3471,4.04759 -7.3961,2.6208 -3.5418,-1.65743 -6.4666,-4.20351 -8.5737,-7.46358 -1.9373,-2.99738 -1.9931,-4.6659 -0.279,-8.33926 1.8893,-4.04895 4.9097,-7.79622 7.2066,-8.9408 1.077,-0.53666 1.7676,-0.68506 3.1881,-0.68506 2.8539,0 3.6624,-0.62344 6.1764,-4.7625 2.1118,-3.47702 4.1663,-7.88474 5.394,-11.57269 1.859,-5.58422 2.7839,-11.67577 2.1347,-14.06041 l -0.3155,-1.15914 -1.7414,0.13978 c -2.9985,0.24069 -8.491,3.2943 -13.5654,7.54182 -3.1462,2.63355 -8.18,7.82563 -11.1004,11.4496 -4.0599,5.03796 -12.2641,17.98627 -18.592,29.34277 -7.9279,14.22812 -16.3296,32.61682 -19.1343,41.87888 -1.6577,5.47481 -2.4009,11.3882 -2.1204,16.87272 0.208,4.0673 0.4841,5.88676 1.3509,8.90277 0.9987,3.4752 2.0189,5.46701 3.6211,7.06922 6.4633,6.46324 23.2729,5.40618 41.3055,-2.59749 14.4064,-6.39424 29.0663,-15.49112 48.2809,-29.9598 10.1234,-7.62299 12.9172,-8.98488 16.9262,-8.25103 2.8931,0.52959 6.1272,2.89644 7.6028,5.56424 0.6823,1.2334 0.7816,1.6814 0.7825,3.52938 0,2.62162 -0.5897,3.96258 -2.6856,6.09224 -2.2132,2.24883 -3.9686,3.43765 -13.4528,9.11082 -20.095,12.02023 -31.6916,18.50591 -43.3785,24.26057 -12.1188,5.96728 -22.9587,8.87942 -32.6892,8.78197 -2.1101,-0.0212 -4.1937,-0.0847 -4.6302,-0.14131 z m -1273.17512,-66.33149 c -2.6524,-1.25764 -4.3533,-3.89138 -4.9368,-7.64442 -0.428,-2.75357 -0.026,-4.89516 1.5011,-7.99505 1.2305,-2.49785 4.1153,-6.39979 5.3104,-7.18288 0.4197,-0.27498 1.211,-0.4595 1.9708,-0.4595 2.6986,0 7.0524,3.14053 8.9442,6.45176 1.2866,2.25192 1.1831,3.41987 -0.6471,7.30329 -2.9649,6.29084 -4.2792,8.10474 -6.7774,9.35308 -2.0052,1.002 -3.5151,1.05089 -5.3652,0.17372 z m 503.5909,-105.85574 c -6.4333,-1.05301 -11.7656,-3.96846 -16.6995,-9.13056 -3.0081,-3.14721 -4.4242,-5.31341 -5.2781,-8.07399 -0.8152,-2.63541 -0.7495,-4.93996 0.3768,-13.22917 0.534,-3.92906 1.0431,-7.77327 1.1315,-8.54268 l 0.1607,-1.39893 -1.463,-0.6698 c -1.2985,-0.59446 -1.9916,-0.6967 -6.162,-0.90889 -9.3596,-0.47625 -13.4965,-1.59658 -15.7439,-4.26374 -1.1691,-1.38742 -1.5396,-2.58685 -1.1992,-3.88186 0.3892,-1.48071 1.6341,-1.8371 8.6067,-2.46398 7.3676,-0.66239 11.7278,-0.57243 14.4854,0.29885 7.3342,2.31732 13.8113,8.21147 16.3365,14.86603 0.8041,2.11924 0.8362,2.35752 0.8486,6.30354 0.01,2.25557 -0.047,6.03247 -0.1195,8.39309 l -0.1323,4.29207 0.8251,0.82738 0.825,0.82735 2.9424,-0.0323 c 5.1651,-0.0567 5.2788,-0.0787 26.8929,-5.1806 6.403,-1.51137 19.5891,-4.5404 29.3026,-6.73121 9.7136,-2.1908 25.6084,-5.77937 35.3219,-7.97459 26.9839,-6.09825 34.9577,-7.85302 40.1879,-8.84407 14.1419,-2.67967 26.775,-3.46871 32.2176,-2.01226 7.6265,2.04089 14.2257,7.09345 18.0906,13.85072 0.6233,1.08961 1.7661,3.6349 2.5396,5.65621 1.6193,4.23098 1.2966,3.98812 5.3683,4.04067 5.5254,0.0713 18.433,-2.85404 29.7547,-6.74349 5.8589,-2.01277 10.4481,-3.82228 20.095,-7.92356 9.2802,-3.94536 11.5039,-4.62872 13.0117,-3.9987 0.6187,0.25853 1.1651,0.78515 1.5991,1.54123 1.1948,2.08169 1.1839,2.14013 -0.6629,3.52837 -3.7219,2.79781 -14.2357,8.67127 -22.8638,12.77266 -11.657,5.54127 -30.2252,12.81991 -37.4071,14.66342 -3.9686,1.01872 -8.3409,1.27473 -10.8479,0.63518 -3.8371,-0.97893 -7.387,-3.31806 -11.5355,-7.60124 -3.6662,-3.78526 -4.6041,-5.82766 -4.6041,-10.02593 0,-1.41423 -0.072,-2.93145 -0.16,-3.37159 l -0.1601,-0.80028 -2.5698,-0.18394 c -5.5146,-0.39468 -13.5031,0.7724 -29.1246,4.255 -39.5579,8.81883 -63.4138,14.26983 -70.6438,16.14178 -2.5466,0.65934 -9.7499,2.63131 -16.0073,4.38211 -15.038,4.20759 -20.0143,5.33683 -28.4728,6.46115 -4.3586,0.57933 -16.111,0.73382 -19.0634,0.25056 z m -115.6131,-33.39274 c -1.5227,-0.94507 -1.6861,-1.61277 -1.6861,-6.89076 v -4.82269 l -1.0583,-0.85161 c -0.5821,-0.46839 -1.6834,-1.465 -2.4474,-2.21467 -1.1822,-1.16004 -1.3891,-1.5095 -1.3891,-2.34672 0,-0.54102 0.1219,-1.2114 0.2708,-1.48969 0.2487,-0.46471 2.2163,-1.17117 6.5466,-2.35061 1.6755,-0.45635 2.8033,-1.61253 3.9826,-4.08268 1.2341,-2.58487 1.6723,-3.08009 2.7258,-3.08009 0.8885,0 1.6606,0.3602 3.9665,1.85057 l 1.6014,1.03505 2.5634,-0.15618 c 2.2666,-0.13809 2.6892,-0.092 3.6491,0.39767 1.9791,1.00965 3.5243,3.36706 3.0881,4.71099 -0.1957,0.60274 -0.7661,1.03579 -2.7451,2.08377 l -2.4981,1.32292 0.037,1.72037 c 0.02,0.94621 0.4071,3.51965 0.8599,5.71876 1.2839,6.23581 1.0837,8.039 -0.8924,8.039 -0.8584,0 -1.9356,-0.7529 -4.3698,-3.05433 -0.9459,-0.89432 -2.3705,-2.13254 -3.1658,-2.75164 l -1.446,-1.12562 -0.5852,0.73391 c -0.6037,0.75718 -0.8143,1.20009 -2.2195,4.66719 -1.1621,2.86727 -1.6196,3.38424 -2.9876,3.37553 -0.6079,-0.004 -1.4181,-0.20116 -1.8004,-0.43844 z m -69.9599,-7.98491 c -0.9617,-0.58653 -2.2377,-2.04677 -2.2377,-2.56098 0,-0.20209 0.8117,-1.53239 1.8036,-2.95625 0.992,-1.42385 1.8882,-2.73148 1.9915,-2.90578 0.1033,-0.17434 -0.232,-1.35832 -0.7453,-2.63113 -0.5132,-1.27277 -0.9331,-2.45197 -0.9331,-2.62043 0,-0.27458 2.11,-1.338 4.4335,-2.23446 1.455,-0.56139 2.8595,-2.22057 3.7628,-4.44505 1.9215,-4.73202 2.5051,-5.93037 3.1258,-6.41866 0.7428,-0.58423 1.8245,-0.66244 2.8295,-0.20455 0.3755,0.17111 2.6375,2.44954 5.0266,5.0632 l 4.344,4.75215 -0.5586,0.97044 c -0.3072,0.53375 -1.0149,1.2985 -1.5727,1.69947 -1.306,0.93877 -2.3186,2.68039 -2.5131,4.32211 -0.086,0.72347 0.038,2.52084 0.2796,4.06201 0.7594,4.84518 0.6231,5.54247 -1.0843,5.54247 -1.3096,0 -2.9106,-1.2092 -4.7078,-3.55555 l -1.5286,-1.99584 -1.2652,0.68856 c -0.6958,0.37869 -2.3172,1.62893 -3.6032,2.77831 -3.451,3.08443 -5.0928,3.71983 -6.8473,2.64996 z m 388.6842,-0.3142 c -13.668,-2.13444 -24.0966,-12.08542 -25.542,-24.37235 -0.957,-8.13536 -3.0347,-12.19126 -7.0232,-13.71002 -3.5861,-1.36557 -14.2234,-0.88408 -26.8337,1.21457 -9.308,1.54905 -43.6984,10.68025 -87.6396,23.26965 -27.9011,7.99386 -32.5434,9.10265 -38.9917,9.31317 -3.1958,0.10436 -4.0515,0.0413 -5.9531,-0.43883 -4.4933,-1.1344 -8.1886,-3.41816 -11.8106,-7.29904 -3.8189,-4.09188 -4.7471,-6.45342 -4.4726,-11.37944 0.089,-1.60072 0.24,-3.70199 0.335,-4.66949 l 0.1728,-1.75909 -5.6581,-0.11948 c -6.5571,-0.13849 -8.5417,-0.52621 -12.558,-2.45338 -1.91,-0.91651 -2.7256,-1.49862 -3.983,-2.84279 -2.6253,-2.80646 -3.1815,-4.8238 -1.7302,-6.27512 1.0413,-1.04132 1.5744,-1.17149 10.3641,-2.53061 1.5279,-0.23627 3.4527,-0.5987 4.2773,-0.80536 7.3962,-1.85396 15.1844,1.06878 20.5099,7.69699 3.1336,3.89996 4.668,7.95372 5.0093,13.2343 l 0.1783,2.75733 0.9206,0.30385 c 0.5064,0.16711 1.4252,0.23468 2.0419,0.15017 1.602,-0.21957 12.5487,-3.21529 22.8897,-6.26411 9.6522,-2.8457 20.0823,-5.78662 30.824,-8.69125 8.494,-2.29679 49.8318,-13.20509 55.4102,-14.62172 8.2929,-2.10597 15.886,-3.09308 25.5657,-3.32353 9.4065,-0.22395 12.5069,0.33255 18.038,3.23768 11.8541,6.2262 21.0714,16.35963 25.6195,28.16624 1.3311,3.45535 1.5529,3.83151 2.6644,4.51847 0.9596,0.59304 1.0197,0.59675 4.642,0.28649 9.773,-0.837 20.3179,-3.84815 55.2928,-15.78908 16.1948,-5.52913 18.6083,-6.2138 21.9041,-6.2138 4.97,0 9.5606,2.16093 12.6276,5.94434 1.3816,1.70426 1.9108,2.75784 2.108,4.19685 0.3075,2.24354 -1.1031,4.21857 -3.8858,5.44068 -1.1317,0.49702 -47.8237,17.00932 -55.4157,19.59737 -4.639,1.58141 -10.1278,3.00045 -14.4198,3.72795 -3.7429,0.63445 -12.7586,0.92708 -15.4781,0.50239 z m -293.8088,-1.65629 c -0.7239,-2.07682 0.1329,-4.3757 3.4464,-9.24663 1.8758,-2.75746 1.8976,-3.25342 0.1922,-4.37086 -1.6487,-1.08019 -3.0506,-2.57816 -3.2462,-3.46853 -0.326,-1.48429 0.037,-1.71524 4.2077,-2.68023 3.7705,-0.87231 3.8529,-0.90649 4.0968,-1.69955 0.1369,-0.44516 0.6363,-2.23811 1.1097,-3.98436 1.0425,-3.84516 1.7378,-4.78245 3.3838,-4.56166 1.3456,0.18048 2.8781,1.23571 4.0762,2.80678 2.0893,2.73971 3.4793,3.75886 7.4089,5.43224 1.1129,0.47392 2.0229,2.02994 2.0272,3.46639 0,0.69646 -0.2371,0.94953 -1.9514,2.06483 -1.1482,0.74697 -2.0181,1.51069 -2.1097,1.85209 -0.3034,1.13154 -0.1562,3.59833 0.3662,6.13724 0.5775,2.80655 0.6766,4.91869 0.2668,5.68444 -0.3969,0.7415 -1.6648,0.91261 -2.7936,0.37698 -0.548,-0.26006 -1.7161,-1.35588 -2.7067,-2.53936 -0.9585,-1.14504 -2.3945,-2.61853 -3.1912,-3.27443 l -1.4486,-1.19251 -0.7732,0.73703 c -0.4253,0.40537 -1.4772,2.1763 -2.3375,3.93544 -0.8604,1.75913 -1.7888,3.40161 -2.0632,3.64995 -0.3218,0.2912 -1.7749,0.66704 -4.092,1.05841 l -3.5929,0.60688 z m -43.4026,-10.00352 c -0.9459,-0.59661 -2.7525,-1.95967 -4.0146,-3.02898 l -2.2949,-1.94421 -1.9445,2.60167 -1.9444,2.60168 -1.5906,-0.48829 c -2.9872,-0.91702 -3.7381,-2.56908 -3.0351,-6.6784 0.5044,-2.9491 0.1993,-3.45996 -3.0712,-5.14226 -3.5607,-1.83158 -4.5943,-3.04345 -4.5943,-5.38668 0,-0.65119 0.1139,-0.71897 1.6536,-0.98366 0.9095,-0.15635 2.6062,-0.35677 3.7703,-0.44535 1.1642,-0.0886 2.5909,-0.28385 3.1705,-0.43392 1.3076,-0.33858 3.2464,-2.20742 3.4748,-3.34941 0.09,-0.45066 0.5964,-2.10365 1.1249,-3.67329 0.8162,-2.42364 1.0737,-2.90732 1.7082,-3.20839 1.02,-0.48403 1.7233,-0.25109 3.6718,1.21624 1.1948,0.89969 2.0999,1.91031 3.1977,3.57005 1.5308,2.31454 1.5314,2.3151 2.6697,2.3151 2.7798,0 5.9856,2.70611 5.9856,5.05264 0,0.91416 -0.1204,1.07363 -1.5138,2.00515 -0.8326,0.5566 -1.8724,1.52553 -2.3108,2.15315 -0.6721,0.96226 -0.8123,1.44378 -0.8945,3.07168 -0.058,1.15139 0.078,2.77312 0.3371,4.01823 0.239,1.14823 0.5056,2.99405 0.5926,4.10181 0.1429,1.82163 0.104,2.06816 -0.4076,2.57968 -0.8304,0.83045 -1.8106,0.69308 -3.7405,-0.52424 z m 37.3756,-12.92823 c -0.819,-0.49935 -3.009,-3.28536 -4.6996,-5.97853 -1.5351,-2.44543 -3.8397,-3.601 -5.2885,-2.65173 -0.4154,0.27218 -1.3605,1.81263 -2.4962,4.06868 -1.0053,1.99687 -1.9867,3.83546 -2.1809,4.08578 -0.3309,0.4264 -0.57,0.40005 -3.7927,-0.41762 -4.3055,-1.09239 -4.6302,-1.25905 -4.6302,-2.37625 0,-0.99571 0.8462,-2.42504 3.1587,-5.33503 0.8821,-1.10998 1.6038,-2.10286 1.6038,-2.20636 0,-0.10353 -0.8423,-1.01846 -1.8717,-2.03319 -2.0788,-2.04915 -2.6263,-2.89589 -2.6263,-4.06191 0,-1.42222 1.2486,-2.19152 4.7823,-2.94667 1.3084,-0.27961 2.7889,-0.70294 3.29,-0.94075 1.2746,-0.60478 2.6174,-2.17974 3.1641,-3.71075 1.6769,-4.69697 2.1723,-5.40544 3.7661,-5.38652 1.442,0.0172 2.3244,0.49532 3.2233,1.74675 0.9936,1.38329 1.8887,2.0601 5.1899,3.92406 3.4869,1.96885 4.2923,2.75225 5.1509,5.01063 0.2261,0.59483 0.073,0.76676 -2.0564,2.30304 -1.2654,0.91313 -2.3882,1.78551 -2.4952,1.93868 -0.5198,0.74472 0.12,4.83351 1.6619,10.6191 0.9266,3.47694 0.9372,3.65885 0.2523,4.34372 -0.6795,0.67948 -1.9958,0.68154 -3.1056,0.005 z m 16.644,-11.66995 c -0.7476,-0.42696 -1.5496,-1.06678 -1.7822,-1.42179 -0.5065,-0.77298 -2.3789,-1.7298 -3.3851,-1.7298 -0.4226,0 -1.0039,-0.2817 -1.4012,-0.679 -1.251,-1.251 -0.8122,-2.06576 3.8664,-7.17944 l 2.585,-2.82533 -2.9403,-1.66864 c -3.3261,-1.88757 -4.3956,-2.87735 -4.3956,-4.06794 0,-1.25476 0.9618,-2.01983 2.8088,-2.23436 3.2875,-0.38187 9.4184,-1.70987 10.241,-2.21826 1.1776,-0.72782 1.8901,-1.77541 2.8437,-4.18114 1.0722,-2.70517 2.2619,-4.92135 3.0282,-5.64128 1.0153,-0.9538 2.4583,-0.53756 4.4763,1.29127 0.9298,0.84259 2.8421,2.13193 4.3739,2.94907 3.5764,1.90778 4.8504,3.04073 5.564,4.94782 0.4456,1.19107 0.4891,1.53545 0.2142,1.69693 -2.3972,1.40822 -4.1139,2.64387 -4.3949,3.16349 -0.4016,0.7426 -0.2808,3.67292 0.3753,9.09778 l 0.4149,3.43114 -0.5822,0.47146 c -1.1141,0.90212 -2.3726,0.6245 -4.663,-1.0287 -3.5827,-2.58601 -4.295,-3.02575 -5.7193,-3.53089 l -1.3861,-0.49152 -1.0064,0.97534 c -0.6362,0.61647 -1.6956,2.33822 -2.8795,4.6795 -1.9961,3.94763 -3.2718,5.90597 -4.276,6.56396 -0.5789,0.37928 -0.7121,0.35441 -1.9799,-0.36967 z m -58.8714,-11.72514 c -1.6235,-1.62351 -1.5122,-2.82184 0.7077,-7.61765 l 0.9425,-2.03602 -1.3476,-0.82915 c -1.6925,-1.04145 -4.1655,-3.36016 -4.4895,-4.20947 -0.2934,-0.76912 0.1396,-2.00829 0.7947,-2.2743 0.2413,-0.098 1.927,-0.26496 3.746,-0.37098 3.5206,-0.20521 3.9691,-0.33956 5.0631,-1.51662 0.9039,-0.97255 1.3442,-1.89264 2.0684,-4.32225 0.9923,-3.32902 2.1421,-6.07383 2.6605,-6.35125 0.8548,-0.45749 2.3399,-0.29506 3.3763,0.36928 2.1826,1.39901 3.4049,3.32364 4.4293,6.9746 0.4573,1.62981 0.4893,1.66725 2.6278,3.07562 2.4196,1.59359 3.3912,2.60618 3.8582,4.02117 0.3092,0.93668 0.2903,0.98586 -0.8045,2.10143 -0.6166,0.62827 -1.7713,1.59869 -2.5659,2.15645 l -1.4447,1.01415 0.1486,3.98058 c 0.1283,3.43625 0.086,4.10557 -0.3077,4.89479 -0.4817,0.9652 -1.305,1.25608 -2.6205,0.92591 -0.8165,-0.20492 -2.6258,-1.86534 -4.0642,-3.72983 -0.8797,-1.14025 -1.2674,-1.44124 -1.8563,-1.44124 -1.7167,0 -3.8139,1.46936 -5.4607,3.8258 -1.1905,1.70362 -2.0482,2.25962 -3.486,2.25962 -0.8698,0 -1.2466,-0.17177 -1.9755,-0.90064 z m 36.7341,-10.67697 c -0.8442,-0.20077 -1.9593,-1.10011 -2.3853,-1.92387 -0.6788,-1.31273 -0.4745,-2.65401 0.93,-6.1038 0.7277,-1.78718 1.323,-3.26173 1.323,-3.27679 0,-0.0151 -0.9529,-0.72432 -2.1175,-1.57615 -2.4238,-1.77278 -3.8226,-3.59404 -3.5669,-4.6441 0.3807,-1.56352 1.767,-2.07197 5.7333,-2.10275 2.3261,-0.018 3.2134,-0.28569 4.2742,-1.28936 0.9403,-0.88966 1.2038,-1.39761 2.4281,-4.67953 1.254,-3.3619 2.1045,-5.04899 2.6508,-5.25865 1.5455,-0.59303 3.6578,0.37913 5.5878,2.57175 0.9254,1.05127 1.2175,1.69389 1.9149,4.21267 1.545,5.5798 1.7066,6.77363 1.7283,12.7734 0.018,4.90625 -0.036,5.65301 -0.449,6.28385 -0.748,1.14149 -2.3038,1.00857 -4.4508,-0.38028 -4.2923,-2.77649 -6.0333,-2.33971 -9.0734,2.27626 -1.8055,2.74156 -2.9099,3.50197 -4.5275,3.11735 z m 26.8744,-13.72579 c -0.3016,-0.38341 -0.5484,-1.07138 -0.5484,-1.52882 0,-0.94734 0.4227,-1.58469 3.1088,-4.68683 1.055,-1.21843 1.9182,-2.30293 1.9183,-2.41001 0,-0.41375 -2.0525,-1.48431 -3.4396,-1.794 -3.0839,-0.68856 -6.5925,-3.1269 -7.0347,-4.88895 -0.093,-0.37028 -0.024,-1.02441 0.1542,-1.45359 0.445,-1.07416 2.1481,-1.66772 7.6228,-2.65668 2.4294,-0.43887 4.9175,-0.98158 5.5292,-1.20605 1.6789,-0.61609 2.5744,-1.83544 3.5232,-4.79745 1.2979,-4.05154 2.0815,-5.1013 3.8081,-5.1013 0.7332,0 1.3889,0.48363 4.5273,3.33904 2.2581,2.05454 2.4801,2.18866 4.101,2.47703 3.4999,0.62264 5.3005,1.93111 6.2212,4.52085 l 0.4168,1.17245 -0.8747,0.75549 c -0.481,0.41553 -1.6485,1.26371 -2.5944,1.88489 -3.6546,2.39993 -4.1997,3.7047 -3.3188,7.94295 0.4224,2.03224 0.6131,7.06022 0.3035,8.00365 -0.1639,0.49929 -0.3859,0.59531 -1.3767,0.59531 -1.8152,0 -2.8045,-0.5651 -5.5228,-3.15465 -1.3787,-1.31342 -2.816,-2.46565 -3.1941,-2.56053 -0.8807,-0.22106 -1.7779,0.77986 -3.3187,3.70244 l -1.101,2.08828 -2.8112,-0.1688 c -2.2305,-0.13394 -2.9678,-0.0871 -3.5691,0.2268 -1.1165,0.58287 -1.9089,0.48844 -2.5302,-0.30152 z m 147.3537,-32.24347 v -5.68855 h 5.8208 5.8208 v 5.68855 5.68854 h -5.8208 -5.8208 z m 15.3458,0 v -5.68855 h 5.6886 5.6885 v 5.68855 5.68854 h -5.6885 -5.6886 z m -15.3458,-15.21355 v -5.82083 h 5.8208 5.8208 v 5.82083 5.82084 h -5.8208 -5.8208 z m 15.3458,0 v -5.82083 h 5.6886 5.6885 v 5.82083 5.82084 h -5.6885 -5.6886 z"
       id="path2128" />
  </g>
</svg>
